<svg xmlns="http://www.w3.org/2000/svg" width="35.912" height="42.51" viewBox="0 0 35.912 42.51">
  <g id="drag" transform="translate(-62.163 -21.333)">
    <g id="Group_635" data-name="Group 635" transform="translate(69.092 21.333)">
      <g id="Group_634" data-name="Group 634" transform="translate(0)">
        <path id="Path_8085" data-name="Path 8085" d="M146.388,21.333a7.737,7.737,0,0,0-7.729,7.729,7.628,7.628,0,0,0,1,3.739.966.966,0,1,0,1.689-.939,5.723,5.723,0,0,1-.755-2.8,5.8,5.8,0,0,1,11.594,0,5.713,5.713,0,0,1-.23,1.517.969.969,0,0,0,.678,1.186.954.954,0,0,0,1.186-.678,7.575,7.575,0,0,0,.3-2.025A7.737,7.737,0,0,0,146.388,21.333Z" transform="translate(-138.659 -21.333)" fill="#ef0f50"/>
      </g>
    </g>
    <g id="Group_641" data-name="Group 641" transform="translate(62.163 25.198)">
      <g id="Group_640" data-name="Group 640" transform="translate(0)">
        <path id="Path_8088" data-name="Path 8088" d="M94.211,77.526a3.852,3.852,0,0,0-2.149.653,3.865,3.865,0,0,0-5.8-1.932,3.874,3.874,0,0,0-3.648-2.585,3.833,3.833,0,0,0-1.932.52V67.865a3.865,3.865,0,0,0-7.729,0V84.289L69.6,81.771a5.068,5.068,0,0,0-6.587.468,2.9,2.9,0,0,0,0,4.1L76.77,100.1a8.642,8.642,0,0,0,6.15,2.547h4.527A10.64,10.64,0,0,0,98.076,92.018V81.39A3.868,3.868,0,0,0,94.211,77.526Zm1.932,14.492a8.706,8.706,0,0,1-8.7,8.7H82.921a6.72,6.72,0,0,1-4.784-1.981L64.377,84.971a.967.967,0,0,1,0-1.366,3.127,3.127,0,0,1,4.064-.288l4.9,3.677a.966.966,0,0,0,1.546-.773V67.865a1.932,1.932,0,0,1,3.864,0V82.356a.966.966,0,0,0,1.932,0V77.526a1.932,1.932,0,0,1,3.864,0v4.831a.966.966,0,0,0,1.932,0v-2.9a1.932,1.932,0,1,1,3.864,0v2.9a.966.966,0,0,0,1.932,0V81.39a1.932,1.932,0,0,1,3.864,0Z" transform="translate(-62.163 -64)" fill="#ef0f50"/>
      </g>
    </g>
  </g>
</svg>
