<svg id="heart" xmlns="http://www.w3.org/2000/svg" width="36.994" height="36.994" viewBox="0 0 36.994 36.994">
  <g id="Group_673" data-name="Group 673" transform="translate(0 0.8)">
    <g id="Group_672" data-name="Group 672">
      <path id="Path_8109" data-name="Path 8109" d="M26.975,36.713H13.1a.771.771,0,0,1-.771-.771V30.817l-3.722,1.13a2.693,2.693,0,0,1-.9.142,3.086,3.086,0,0,1-3.083-3.083V24.381H1.541A1.525,1.525,0,0,1,0,22.84a1.552,1.552,0,0,1,.244-.829L3.849,16.3a5.052,5.052,0,0,0,.775-2.7A13.851,13.851,0,0,1,13.751.565a.771.771,0,0,1,.521,1.452A12.3,12.3,0,0,0,6.166,13.592a6.586,6.586,0,0,1-1.014,3.527L1.546,22.835l3.849,0a.771.771,0,0,1,.771.771v5.395a1.543,1.543,0,0,0,1.541,1.541,1.267,1.267,0,0,0,.416-.062l4.755-1.446a.771.771,0,0,1,.994.737v5.395H26.2V28.189a13.058,13.058,0,0,1,2.015-6.963.771.771,0,0,1,1.306.822,11.511,11.511,0,0,0-1.779,6.141v7.753a.771.771,0,0,1-.771.771Z" transform="translate(0 -0.519)" fill="#ef0f50"/>
    </g>
  </g>
  <g id="Group_674" data-name="Group 674" transform="translate(16.955)">
    <path id="Path_8110" data-name="Path 8110" d="M21.019,18.5a.773.773,0,0,1-.461-.153C20.168,18.053,11,11.146,11,5.6A5.6,5.6,0,0,1,21.019,2.164,5.6,5.6,0,0,1,31.038,5.6c0,5.551-9.168,12.458-9.558,12.749A.773.773,0,0,1,21.019,18.5ZM16.6,1.541A4.059,4.059,0,0,0,12.541,5.6c0,3.746,5.739,9.016,8.478,11.16C23.757,14.609,29.5,9.338,29.5,5.6a4.054,4.054,0,0,0-7.77-1.622.8.8,0,0,1-1.413,0A4.049,4.049,0,0,0,16.6,1.541Z" transform="translate(-11 0)" fill="#ef0f50"/>
  </g>
</svg>
