<svg xmlns="http://www.w3.org/2000/svg" width="27.703" height="34.221" viewBox="0 0 27.703 34.221">
  <g id="microphone" transform="translate(-3.5 -1.5)">
    <path id="Path_8107" data-name="Path 8107" d="M14.2,1.5A5.7,5.7,0,0,0,8.5,7.2v9.777a5.7,5.7,0,0,0,11.407,0V7.2A5.7,5.7,0,0,0,14.2,1.5ZM10.13,7.2a4.074,4.074,0,1,1,8.148,0v9.777a4.074,4.074,0,0,1-8.148,0Z" transform="translate(3.148)" fill="#ef0f50" fill-rule="evenodd"/>
    <path id="Path_8108" data-name="Path 8108" d="M5.13,9.315a.815.815,0,1,0-1.63,0v1.63A13.852,13.852,0,0,0,16.537,24.772v4.912H14.092a.815.815,0,0,0,0,1.63h6.518a.815.815,0,1,0,0-1.63H18.166V24.772A13.852,13.852,0,0,0,31.2,10.944V9.315a.815.815,0,1,0-1.63,0v1.63a12.222,12.222,0,1,1-24.444,0Z" transform="translate(0 4.407)" fill="#ef0f50"/>
  </g>
</svg>
