<svg xmlns="http://www.w3.org/2000/svg" width="40.269" height="30.394" viewBox="0 0 40.269 30.394">
  <g id="mortarboard" transform="translate(0 -117.326)">
    <g id="Group_675" data-name="Group 675" transform="translate(0 117.326)">
      <path id="Path_8129" data-name="Path 8129" d="M39.952,127.686a2,2,0,0,0-.616-.753c-.027-.019-.178-.1-.206-.112L21.264,117.6a.67.67,0,0,0-.143-.054,2.306,2.306,0,0,0-1.97,0,.539.539,0,0,0-.144.054L1.154,126.812c-.044.021-.19.1-.23.129a1.957,1.957,0,0,0-.6.722c-.02.037-.081.166-.1.208A2.975,2.975,0,0,0,0,129.017a3.215,3.215,0,0,0,.31,1.321,2.015,2.015,0,0,0,.621.762c.027.019.178.1.206.112l7.252,3.743v6.92c0,3.837,5.908,5.845,11.745,5.845s11.745-2.008,11.745-5.845v-6.923l3.356-1.732v8.372l-1.592,4.437a1.415,1.415,0,0,0,.376,1.569c.414.285.918.054,1.126-.524l.928-2.583L37,147.075a.858.858,0,0,0,.752.645.647.647,0,0,0,.372-.122,1.412,1.412,0,0,0,.376-1.569l-1.587-4.423v-9.083a1.207,1.207,0,0,0-.024-.157l2.223-1.148c.044-.021.19-.1.23-.129a1.953,1.953,0,0,0,.6-.729l-.673-.7.768.5a2.974,2.974,0,0,0,.232-1.146h0A3.2,3.2,0,0,0,39.952,127.686Zm-19.817,17.7c-6.245,0-10.067-2.27-10.067-3.507s3.822-3.507,10.067-3.507,10.067,2.27,10.067,3.507S26.38,145.382,20.135,145.382ZM30.2,138.738c-4.321-3.483-15.814-3.483-20.134,0v-6.214c0-1.237,3.822-3.507,10.067-3.507s10.067,2.27,10.067,3.507Zm1.671-6.275c-.129-7.589-23.349-7.589-23.479,0L1.72,129.012l17.752-9.16a.961.961,0,0,0,.106-.042,1.118,1.118,0,0,1,1.109,0,.573.573,0,0,0,.1.04l17.754,9.169Z" transform="translate(0 -117.326)" fill="#ef0f50"/>
    </g>
  </g>
</svg>
