<svg xmlns="http://www.w3.org/2000/svg" width="39.188" height="31.024" viewBox="0 0 39.188 31.024">
  <g id="photo-camera" transform="translate(0 -53.333)">
    <g id="Group_627" data-name="Group 627" transform="translate(0 53.333)">
      <g id="Group_626" data-name="Group 626">
        <path id="Path_8074" data-name="Path 8074" d="M33.473,58.232h-4.9a.814.814,0,0,1-.774-.558l-.516-1.548a4.077,4.077,0,0,0-3.873-2.792H15.777a4.074,4.074,0,0,0-3.871,2.791l-.516,1.55a.818.818,0,0,1-.776.558h-4.9A5.721,5.721,0,0,0,0,63.947v14.7a5.721,5.721,0,0,0,5.715,5.715H33.474a5.721,5.721,0,0,0,5.715-5.715v-14.7A5.721,5.721,0,0,0,33.473,58.232Zm4.082,20.411a4.088,4.088,0,0,1-4.082,4.082H5.715a4.088,4.088,0,0,1-4.082-4.082v-14.7a4.088,4.088,0,0,1,4.082-4.082h4.9a2.448,2.448,0,0,0,2.324-1.674l.518-1.551a2.444,2.444,0,0,1,2.322-1.674h7.635a2.447,2.447,0,0,1,2.324,1.675l.516,1.55a2.448,2.448,0,0,0,2.324,1.674h4.9a4.088,4.088,0,0,1,4.082,4.082v14.7Z" transform="translate(0 -53.333)" fill="#ef0f50"/>
      </g>
    </g>
    <g id="Group_629" data-name="Group 629" transform="translate(9.797 61.497)">
      <g id="Group_628" data-name="Group 628">
        <path id="Path_8075" data-name="Path 8075" d="M137.8,160a9.8,9.8,0,1,0,9.8,9.8A9.807,9.807,0,0,0,137.8,160Zm0,17.961a8.164,8.164,0,1,1,8.164-8.164A8.174,8.174,0,0,1,137.8,177.961Z" transform="translate(-128 -160)" fill="#ef0f50"/>
      </g>
    </g>
    <g id="Group_631" data-name="Group 631" transform="translate(13.063 64.763)">
      <g id="Group_630" data-name="Group 630">
        <path id="Path_8076" data-name="Path 8076" d="M177.2,202.667a6.538,6.538,0,0,0-6.531,6.531.816.816,0,1,0,1.633,0,4.9,4.9,0,0,1,4.9-4.9.816.816,0,1,0,0-1.633Z" transform="translate(-170.667 -202.667)" fill="#ef0f50"/>
      </g>
    </g>
  </g>
</svg>
