<svg id="presentation" xmlns="http://www.w3.org/2000/svg" width="40.042" height="38.374" viewBox="0 0 40.042 38.374">
  <path id="Path_8068" data-name="Path 8068" d="M12.334,28.679a.835.835,0,0,1-.834-.834V17.834a.834.834,0,1,1,1.668,0V27.845A.835.835,0,0,1,12.334,28.679Z" transform="translate(7.687 9.695)" fill="#ef0f50"/>
  <path id="Path_8069" data-name="Path 8069" d="M19.842,26.674a.833.833,0,0,1-.462-.14l-7.508-5.005A.834.834,0,0,1,12.8,20.14L20.3,25.145a.834.834,0,0,1-.462,1.528Z" transform="translate(7.687 11.7)" fill="#ef0f50"/>
  <path id="Path_8070" data-name="Path 8070" d="M7.835,26.674a.834.834,0,0,1-.464-1.528l7.508-5.005a.834.834,0,0,1,.924,1.388L8.3,26.534A.816.816,0,0,1,7.835,26.674Z" transform="translate(4.678 11.7)" fill="#ef0f50"/>
  <path id="Path_8071" data-name="Path 8071" d="M36.705,7.674H3.337A3.337,3.337,0,0,1,3.337,1H36.705a3.337,3.337,0,1,1,0,6.674ZM3.337,2.668a1.668,1.668,0,0,0,0,3.337H36.705a1.668,1.668,0,1,0,0-3.337Z" transform="translate(0 -1)" fill="#ef0f50"/>
  <path id="Path_8072" data-name="Path 8072" d="M32.866,27.358H4.5a2.506,2.506,0,0,1-2.5-2.5V4.834A.835.835,0,0,1,2.834,4h31.7a.835.835,0,0,1,.834.834V24.855A2.506,2.506,0,0,1,32.866,27.358ZM3.668,5.668V24.855a.835.835,0,0,0,.834.834H32.866a.835.835,0,0,0,.834-.834V5.668Z" transform="translate(1.337 1.005)" fill="#ef0f50"/>
  <path id="Path_8073" data-name="Path 8073" d="M6.834,20.347a.833.833,0,0,1-.591-1.423l6.674-6.674a.834.834,0,0,1,1.053-.105l4.37,2.913,6.195-7.745a.834.834,0,1,1,1.3,1.043L19.164,16.7a.833.833,0,0,1-1.115.174l-4.436-2.956-6.19,6.19a.837.837,0,0,1-.589.242Z" transform="translate(4.01 3.011)" fill="#ef0f50"/>
</svg>
