<svg xmlns="http://www.w3.org/2000/svg" width="38.994" height="38.993" viewBox="0 0 38.994 38.993">
  <g id="scale" transform="translate(0.001 0)">
    <g id="Group_648" data-name="Group 648" transform="translate(0 25.995)">
      <path id="Path_8090" data-name="Path 8090" d="M5.686,22.5A5.693,5.693,0,0,1,0,16.812.813.813,0,0,1,.812,16h9.748a.813.813,0,0,1,.812.812A5.693,5.693,0,0,1,5.686,22.5ZM1.706,17.625a4.063,4.063,0,0,0,7.961,0Z" transform="translate(0 -16)" fill="#ef0f50"/>
    </g>
    <g id="Group_649" data-name="Group 649" transform="translate(18.684 9.748)">
      <path id="Path_8091" data-name="Path 8091" d="M12.312,34.432a.813.813,0,0,1-.812-.812V6.812a.812.812,0,1,1,1.625,0V33.62A.813.813,0,0,1,12.312,34.432Z" transform="translate(-11.5 -6)" fill="#ef0f50"/>
    </g>
    <g id="Group_650" data-name="Group 650" transform="translate(9.749 37.368)">
      <path id="Path_8092" data-name="Path 8092" d="M24.684,24.625H6.812a.812.812,0,1,1,0-1.625H24.684a.812.812,0,1,1,0,1.625Z" transform="translate(-6 -23)" fill="#ef0f50"/>
    </g>
    <g id="Group_651" data-name="Group 651" transform="translate(16.247 4.874)">
      <path id="Path_8093" data-name="Path 8093" d="M13.249,9.5A3.249,3.249,0,1,1,16.5,6.249,3.253,3.253,0,0,1,13.249,9.5Zm0-4.874a1.625,1.625,0,1,0,1.625,1.625A1.627,1.627,0,0,0,13.249,4.625Z" transform="translate(-10 -3)" fill="#ef0f50"/>
    </g>
    <g id="Group_652" data-name="Group 652" transform="translate(-0.001 14.668)">
      <path id="Path_8094" data-name="Path 8094" d="M10.561,21.98a.809.809,0,0,1-.746-.492l-4.128-9.63-4.128,9.63a.812.812,0,0,1-1.493-.639L4.939,9.476a.846.846,0,0,1,1.493,0l4.874,11.373a.811.811,0,0,1-.746,1.131Z" transform="translate(0.001 -9.028)" fill="#ef0f50"/>
    </g>
    <g id="Group_653" data-name="Group 653" transform="translate(27.62 11.373)">
      <path id="Path_8095" data-name="Path 8095" d="M22.686,13.5A5.693,5.693,0,0,1,17,7.812.813.813,0,0,1,17.812,7h9.748a.813.813,0,0,1,.812.812A5.693,5.693,0,0,1,22.686,13.5ZM18.706,8.625a4.063,4.063,0,0,0,7.961,0Z" transform="translate(-17 -7)" fill="#ef0f50"/>
    </g>
    <g id="Group_654" data-name="Group 654" transform="translate(27.619 0.046)">
      <path id="Path_8096" data-name="Path 8096" d="M27.561,12.98a.809.809,0,0,1-.746-.492l-4.128-9.63-4.128,9.63a.812.812,0,0,1-1.493-.639L21.939.476a.846.846,0,0,1,1.493,0l4.874,11.373a.811.811,0,0,1-.746,1.131Z" transform="translate(-16.999 -0.028)" fill="#ef0f50"/>
    </g>
    <g id="Group_655" data-name="Group 655" transform="translate(20.829 0)">
      <path id="Path_8097" data-name="Path 8097" d="M13.632,7.8a.812.812,0,0,1-.38-1.53L24.918.094a.813.813,0,1,1,.76,1.436L14.013,7.7a.822.822,0,0,1-.38.094Z" transform="translate(-12.82 0)" fill="#ef0f50"/>
    </g>
    <g id="Group_656" data-name="Group 656" transform="translate(4.874 8.448)">
      <path id="Path_8098" data-name="Path 8098" d="M3.812,13a.812.812,0,0,1-.38-1.53L15.1,5.295a.813.813,0,1,1,.76,1.436L4.193,12.9a.822.822,0,0,1-.38.094Z" transform="translate(-3 -5.199)" fill="#ef0f50"/>
    </g>
  </g>
</svg>
