<svg xmlns="http://www.w3.org/2000/svg" width="38.085" height="38.117" viewBox="0 0 38.085 38.117">
  <g id="science" transform="translate(0 0.021)">
    <path id="Path_8130" data-name="Path 8130" d="M16.609,29.865a2.582,2.582,0,0,1-1.9-.708c-2.028-2.03.6-6.846,4.1-10.348s8.325-6.124,10.348-4.1-.6,6.846-4.1,10.348c-2.658,2.656-6.07,4.808-8.449,4.808Zm10.638-14.28c-1.446,0-4.327,1.358-7.315,4.345-3.724,3.726-4.916,7.289-4.1,8.1s4.377-.376,8.1-4.1,4.916-7.288,4.1-8.1A1.1,1.1,0,0,0,27.248,15.585Z" transform="translate(8.217 8.23)" fill="#ef0f50"/>
    <path id="Path_8131" data-name="Path 8131" d="M27.257,29.866c-2.379,0-5.79-2.152-8.447-4.808-3.5-3.5-6.128-8.318-4.1-10.348s6.844.6,10.348,4.1,6.129,8.318,4.1,10.348a2.588,2.588,0,0,1-1.9.708ZM15.832,15.83c-.816.817.376,4.38,4.1,8.1s7.287,4.915,8.1,4.1-.376-4.38-4.1-8.1-7.284-4.911-8.1-4.1Z" transform="translate(8.217 8.23)" fill="#ef0f50"/>
    <path id="Path_8132" data-name="Path 8132" d="M18.773,33.226a.8.8,0,0,1-.327-.071c-3.924-1.774-8.86-1.876-15.535-.313A2.386,2.386,0,0,1,0,30.512V4.948A2.39,2.39,0,0,1,1.311,2.824c7.582-3.815,13.239-3.8,17.732.083C23.536-.975,29.2-.992,36.776,2.826a2.389,2.389,0,0,1,1.309,2.122V18.261a.793.793,0,1,1-1.587,0V4.948a.789.789,0,0,0-.433-.7C28.851.611,23.614.712,19.592,4.552a.788.788,0,0,1-1.095,0C14.469.711,9.234.614,2.023,4.243a.793.793,0,0,0-.436.7V30.512a.806.806,0,0,0,.3.627.788.788,0,0,0,.673.156c7.025-1.644,12.284-1.511,16.542.417a.792.792,0,0,1-.327,1.514Z" transform="translate(0 0)" fill="#ef0f50"/>
    <path id="Path_8133" data-name="Path 8133" d="M12.293,21.217a.794.794,0,0,1-.793-.793V2.793a.793.793,0,1,1,1.587,0v17.63A.793.793,0,0,1,12.293,21.217Z" transform="translate(6.749 1.186)" fill="#ef0f50"/>
  </g>
</svg>
