<svg xmlns="http://www.w3.org/2000/svg" width="31.668" height="38.374" viewBox="0 0 31.668 38.374">
  <g id="XMLID_1_" transform="translate(-1 -0.031)">
    <path id="Path_8111" data-name="Path 8111" d="M14.035,2.682A.788.788,0,0,1,14.019,3.8a.67.67,0,0,1-.256.176A.765.765,0,0,1,12.9,3.8l-.688-.688A9.112,9.112,0,0,1,13.6,2.25Z" transform="translate(6.737 1.333)" fill="#ef0f50"/>
    <path id="Path_8112" data-name="Path 8112" d="M10.79,5.063A9.579,9.579,0,0,1,13.063,2.79l.688.688a.765.765,0,0,0,.865.176l.016.016a8.553,8.553,0,0,0-2.962,2.962l-.016-.016a.765.765,0,0,0-.176-.865Z" transform="translate(5.884 1.658)" fill="#ef0f50"/>
    <path id="Path_8113" data-name="Path 8113" d="M10.26,5.6a7.911,7.911,0,0,1,.849-1.393L11.8,4.9a.765.765,0,0,1,.176.865.67.67,0,0,1-.176.256.774.774,0,0,1-1.121,0Z" transform="translate(5.565 2.511)" fill="#ef0f50"/>
    <path id="Path_8114" data-name="Path 8114" d="M12.418,7.384a8.785,8.785,0,0,0,.752,10.2L25.578,5.174a8.712,8.712,0,0,0-5.652-2.033A8.559,8.559,0,0,0,15.38,4.422l-.016-.016a.67.67,0,0,0,.256-.176.788.788,0,0,0,.016-1.121L15.2,2.677A10.18,10.18,0,0,1,19.927,1.54a10.327,10.327,0,0,1,7.365,3.042.751.751,0,0,1,.24.56.786.786,0,0,1-.24.576L13.715,19.3a.786.786,0,0,1-.576.24.815.815,0,0,1-.56-.24A10.4,10.4,0,0,1,10.689,7.208l.416.416a.774.774,0,0,0,1.121,0,.67.67,0,0,0,.176-.256Z" transform="translate(5.136 0.907)" fill="#ef0f50"/>
    <path id="Path_8115" data-name="Path 8115" d="M10.1,3.32l1.425,1.425a7.911,7.911,0,0,0-.849,1.393L9.56,5.017l.544-.7a.794.794,0,0,0,0-.993Z" transform="translate(5.145 1.977)" fill="#ef0f50"/>
    <path id="Path_8116" data-name="Path 8116" d="M12.968,4.807,5.443,14.461a3.85,3.85,0,0,0-1.553-.608L11.815,3.67Z" transform="translate(1.737 2.187)" fill="#ef0f50"/>
    <path id="Path_8117" data-name="Path 8117" d="M9.993,5.129,8.84,3.992l.432-.56A.826.826,0,0,1,10.409,3.3l.128.128a.794.794,0,0,1,0,.993Z" transform="translate(4.712 1.865)" fill="#ef0f50"/>
    <path id="Path_8118" data-name="Path 8118" d="M10.079,2.095a1.629,1.629,0,0,0,.016,2.273l.8.8A.826.826,0,0,0,9.758,5.3l-.432.56-.368-.368A3.253,3.253,0,0,1,8.942.958,3.273,3.273,0,0,1,13.489.942l2.626,2.642a9.112,9.112,0,0,0-1.393.865L12.368,2.079A1.649,1.649,0,0,0,10.079,2.095Z" transform="translate(4.226 0)" fill="#ef0f50"/>
    <path id="Path_8119" data-name="Path 8119" d="M11.475,21.747H9.425L4.19,15.182a3.659,3.659,0,0,0,1.441-.752Z" transform="translate(1.917 8.654)" fill="#ef0f50"/>
    <path id="Path_8120" data-name="Path 8120" d="M9.749,19.3a.793.793,0,0,1-.128,1.121.816.816,0,0,1-.5.176.765.765,0,0,1-.624-.3L7.46,19H9.509Z" transform="translate(3.882 11.4)" fill="#ef0f50"/>
    <path id="Path_8121" data-name="Path 8121" d="M23.412,20.6H10.6a.816.816,0,0,0,.5-.176.793.793,0,0,0,.128-1.121l-.24-.3H23.412a4,4,0,0,1,4,4v3.2a.793.793,0,0,1-.8.8H5.8a.793.793,0,0,1-.8-.8V23a4,4,0,0,1,3.938-4l1.041,1.3a.765.765,0,0,0,.624.3H9A2.4,2.4,0,0,0,6.6,23v2.4H25.813V23a2.4,2.4,0,0,0-2.4-2.4Z" transform="translate(2.404 11.4)" fill="#ef0f50"/>
    <path id="Path_8122" data-name="Path 8122" d="M4.154,13.983c.032-.016.048-.032.08-.048a.8.8,0,0,1,1.041.176l.56.688a3.659,3.659,0,0,1-1.441.752L4.026,15.1a.793.793,0,0,1,.128-1.121Z" transform="translate(1.713 8.284)" fill="#ef0f50"/>
    <path id="Path_8123" data-name="Path 8123" d="M5.623,10.638l-.608.784a.789.789,0,0,1-.624.3,1.4,1.4,0,0,1-.256-.032H4.118a1.021,1.021,0,0,1-.224-.128.811.811,0,0,1-.128-1.137l.3-.4a3.85,3.85,0,0,1,1.553.608Z" transform="translate(1.557 6.009)" fill="#ef0f50"/>
    <path id="Path_8124" data-name="Path 8124" d="M5.227,16.158a.8.8,0,0,0-1.041-.176l-.016-.016a2.39,2.39,0,0,0-.24-4.5,1.4,1.4,0,0,0,.256.032.789.789,0,0,0,.624-.3l.608-.784a3.992,3.992,0,0,1,.368,6.436Z" transform="translate(1.761 6.238)" fill="#ef0f50"/>
    <path id="Path_8125" data-name="Path 8125" d="M5,18.005A4,4,0,1,1,5,10a4.1,4.1,0,0,1,.624.048l-.3.4a.811.811,0,0,0,.128,1.137,1.021,1.021,0,0,0,.224.128A1.854,1.854,0,0,0,5,11.6a2.4,2.4,0,1,0,0,4.8,2.242,2.242,0,0,0,.929-.192l.016.016c-.032.016-.048.032-.08.048A.793.793,0,0,0,5.739,17.4l.368.448A3.617,3.617,0,0,1,5,18.005Z" transform="translate(0 5.991)" fill="#ef0f50"/>
  </g>
</svg>
