<svg xmlns="http://www.w3.org/2000/svg" width="40.188" height="40.188" viewBox="0 0 40.188 40.188">
  <g id="tower" transform="translate(0)">
    <path id="Path_8079" data-name="Path 8079" d="M29.955,34.118h-6.7a.838.838,0,0,1-.837-.837V27.42a5.024,5.024,0,1,0-10.047,0V33.28a.838.838,0,0,1-.837.837h-6.7A.838.838,0,0,1,4,33.28V9.837A.838.838,0,0,1,4.837,9H29.955a.838.838,0,0,1,.837.837V33.28A.838.838,0,0,1,29.955,34.118Zm-5.861-1.674h5.024V10.675H5.675V32.443H10.7V27.42a6.7,6.7,0,1,1,13.4,0Z" transform="translate(2.698 6.071)" fill="#ef0f50"/>
    <path id="Path_8080" data-name="Path 8080" d="M39.351,10.047H.837A.838.838,0,0,1,0,9.21V.837A.838.838,0,0,1,.837,0H9.21a.838.838,0,0,1,.837.837V3.349h5.024V.837A.838.838,0,0,1,15.908,0H24.28a.838.838,0,0,1,.837.837V3.349h5.024V.837A.838.838,0,0,1,30.978,0h8.373a.838.838,0,0,1,.837.837V9.21A.838.838,0,0,1,39.351,10.047ZM1.675,8.373H38.514v-6.7h-6.7V4.186a.838.838,0,0,1-.837.837h-6.7a.838.838,0,0,1-.837-.837V1.675h-6.7V4.186a.838.838,0,0,1-.837.837H9.21a.838.838,0,0,1-.837-.837V1.675h-6.7Z" transform="translate(0)" fill="#ef0f50"/>
    <path id="Path_8081" data-name="Path 8081" d="M7.535,13.372a.841.841,0,0,1-.593-.244l-6.7-6.7A.837.837,0,0,1,1.429,5.246l6.7,6.7a.836.836,0,0,1-.591,1.428Z" transform="translate(0 3.373)" fill="#ef0f50"/>
    <path id="Path_8082" data-name="Path 8082" d="M19.837,13.372a.836.836,0,0,1-.593-1.428l6.7-6.7A.837.837,0,0,1,27.127,6.43l-6.7,6.7A.834.834,0,0,1,19.837,13.372Z" transform="translate(12.816 3.373)" fill="#ef0f50"/>
    <path id="Path_8083" data-name="Path 8083" d="M11.861,17.7H6.837A.838.838,0,0,1,6,16.861V11.837A.838.838,0,0,1,6.837,11h5.024a.838.838,0,0,1,.837.837v5.024A.838.838,0,0,1,11.861,17.7ZM7.675,16.024h3.349V12.675H7.675Z" transform="translate(4.047 7.42)" fill="#ef0f50"/>
    <path id="Path_8084" data-name="Path 8084" d="M19.861,17.7H14.837A.838.838,0,0,1,14,16.861V11.837A.838.838,0,0,1,14.837,11h5.024a.838.838,0,0,1,.837.837v5.024A.838.838,0,0,1,19.861,17.7Zm-4.186-1.675h3.349V12.675H15.675Z" transform="translate(9.443 7.42)" fill="#ef0f50"/>
  </g>
</svg>
