<svg id="Layer_1" enable-background="new 0 0 130 130" height="512" viewBox="0 0 130 130" width="512" xmlns="http://www.w3.org/2000/svg"><g><g fill="#f34858"><path d="m54.12971 109.92649v2.46002c0 .32001-.19995.63-.60999.85999l-17.15997 9.92004c-.82001.46997-2.16003.46997-2.98004 0l-31.73999-18.45001c-.40997-.23999-.60999-.54004-.60999-.87l-.02002-2.46002s.01001 0 .01001.01001c0-.32001.20001-.64001.62-.88l17.16003-9.90002c.82001-.47998 2.14996-.46997 2.96997 0l31.73999 18.45001c.41004.23999.62.54998.62.85998z"/><path d="m108.30977 71.4965-52.52002 30.73999c-1.16003.67004-3.03003.67004-4.19 0l-33.26001-17.71997-.02002-3.92999-2.42999-1.41003-.10999-38.45996c0-1.34003.92999-2.95001 2.09003-3.63l52.52996-30.32002c.58002-.33002 1.12-.37 1.5-.15002l2.40002 1.40002c.39001.21997.63.69.64001 1.35999l.09998 38.46002h.01001l33.25 19.32001c.58997.33997.87.78998.85999 1.22998l.03003 1.89001c0 .42999-.29004.88-.88 1.21997z"/><path d="m113.42976 66.72654-5.68994-3.28003.07984-14.29999 5.64013-3.28003 5.67993 3.28003-.07006 14.31z"/><path d="m128.98982 94.00651v.78003l-33.18005 19.27997-13.11005-7.54999-13.22998 7.83997c-.31.19-.75.18005-1.23999-.10999-.96002-.54999-1.72998-1.89001-1.72003-2.96997 0-.54999.19-.92999.5-1.10999h.01001l10.84003-6.44-9.06-5.22003v-.81l33.18005-19.28998z"/><path d="m87.30977 51.57652-5.68006-3.27002.08002-26.51001 5.64002-3.27997 5.66998 3.27997-.06995 26.5z"/><path d="m100.36971 59.14652-5.68995-3.28003.07996-20.39996 5.64001-3.28003 5.67994 3.28003-.06995 20.39996z"/></g><g><g><g><g><g><path d="m18.32013 80.58793.01719 3.92502 33.26668 17.7248c1.15402.67171 3.0228.67171 4.18544 0l52.52422-30.74261c.58561-.33588.87843-.78367.87843-1.22289l-.03323-1.89604c0 .43922-.29282.87843-.87843 1.21426l-52.5156 30.32265c-1.16264.66314-3.04004.66314-4.18539 0z" fill="#5b5e71"/><path d="m74.32371 8.03366c-.37893-.22392-.91286-.19806-1.49847.14639l-52.52422 30.32266c-1.16259.67171-2.0927 2.29076-2.0927 3.6256l.11196 38.46095-2.42857-1.41237-.11196-38.4609c0-1.33489.93011-2.95389 2.0927-3.62564l52.52421-30.32262c.58561-.33588 1.11954-.37031 1.49847-.14644z" fill="#5b5e71"/><path d="m72.82791 8.17649c1.16019-.66984 2.10349-.13229 2.10727 1.20084l.10903 38.45837-56.72732 32.75153-.10903-38.45837c-.00378-1.33312.93339-2.95636 2.09355-3.62618z" fill="#d4dae8"/><path d="m72.45673 46.35114-51.57223 29.76633-.0952-33.99418c0-.40945.44751-1.17127.79983-1.38073l50.77234-29.30934z" fill="#fff"/><path d="m69.59958 44.70522-45.86845 26.47168-.08566-28.32852 45.86838-26.47169z" fill="#e4e8f4"/><path d="m23.64802 42.85186 45.87019-26.47895-.00185 3.13836-45.86834 26.47431z" fill="#f9607f"/><path d="m18.32401 80.58589 33.25142 19.32361c1.15263.66983 3.02698.66985 4.18714.00002l52.52102-30.32302c1.16564-.67298 1.17175-1.75868.01913-2.42851l-33.25143-19.32361z" fill="#e4e8f4"/><g fill="#5b5e71"><path d="m75.2994 53.99064-2.64295-1.56572 2.76408-1.60941.12212.02781 2.64395 1.56571-2.71841 1.58161z"/><path d="m71.83337 55.99222-2.64395-1.56572 2.75515-1.60444.13801.02184 2.62707 1.55877-2.70749 1.58955z"/><path d="m29.86674 84.19899-2.6648-1.57863 5.0387-2.90904.14197.0278 2.63204 1.55877-4.97912 2.9011z"/><path d="m40.15561 90.17791-2.65388-1.57267 3.65169-2.1088.12212.0278 2.64296 1.56572-3.59411 2.08795z"/><path d="m36.72235 88.18328-2.64296-1.56572 8.81946-5.10522.12212.02781 2.64296 1.56572-8.7728 5.07741z"/><path d="m63.59175 72.67005-2.65387-1.57267 2.775-1.60245.12212.0278 2.65388 1.57267-2.72834 1.57465z"/><path d="m44.50825 87.66502-2.64395-1.56572 3.65169-2.12172.12212.02781 2.65487 1.57267-3.61594 2.08696z"/><path d="m76.83633 57.08038-2.66381-1.57764 4.67134-2.69855.12709.03375 2.65983 1.57267-4.62567 2.66977z"/><path d="m68.36834 57.9928-2.65388-1.57266 2.76508-1.5965.13701.02184 2.62707 1.55877-2.70749 1.58855z"/><path d="m73.43185 59.04621-2.6638-1.57763 2.77501-1.60345.12807.03376 2.64792 1.56572-2.71841 1.5816z"/><path d="m64.90231 59.99339-2.64296-1.56572 2.75416-1.60345.12213.0278 2.65387 1.57267-2.71841 1.5687z"/><path d="m70.07306 61.04184-2.71842-1.57962 2.75317-1.61437.12808.03375 2.64791 1.56572-2.75415 1.60345z"/><path d="m61.50281 62.01284-2.7065-1.57168 2.75118-1.61635.12311.0278 2.64295 1.56572-2.75415 1.60344z"/><path d="m80.86431 62.75449-2.7065-1.57266 7.55159-4.38739.12311.0278 2.64296 1.56571-7.55556 4.37548z"/><path d="m66.57228 63.00668-2.6648-1.57863 2.76607-1.5965.14198.02781 2.63203 1.55877-2.70749 1.58855z"/><path d="m72.44596 63.58352-2.64792-1.56572 2.76508-1.6094.12211.0278 2.66381 1.57763-2.72536 1.57466z"/><path d="m57.96132 64.00151-2.64395-1.56572 2.76508-1.6094.12212.0278 2.64296 1.56472-2.71742 1.5826z"/><path d="m77.40821 64.75011-2.7065-1.57266 2.75118-1.61536.12311.0278 2.64296 1.56472-2.75416 1.60445z"/><path d="m63.13703 64.99039-2.6648-1.57863 2.776-1.60345.12709.03376 2.65983 1.57267-2.72933 1.57565z"/><path d="m69.00079 65.5722-2.64793-1.56473 2.76408-1.6104.12312.0278 2.66381 1.57763-2.72537 1.57466z"/><path d="m54.4953 66.0021-2.64296-1.56572 2.75415-1.60345.13702.02184 2.62707 1.55877-2.70749 1.58856z"/><path d="m73.97296 66.73283-2.7065-1.57267 2.75217-1.61536.12212.0278 2.64296 1.56572-2.75416 1.60345z"/><path d="m59.77823 66.98601-2.71841-1.57962 2.75316-1.61437.12709.03376 2.64891 1.56571-2.75416 1.60345z"/><path d="m65.5556 67.56186-2.64792-1.56572 2.76409-1.60941.12212.02781 2.6648 1.57762-2.72636 1.57467z"/><path d="m51.02927 68.00269-2.64296-1.56572 2.75415-1.60345.13801.02184 2.62707 1.55877-2.70848 1.58856z"/><path d="m78.77437 67.94013-2.7075-1.57267 3.50475-2.05121.13701.02184 2.62708 1.55877-3.50773 2.05221z"/><path d="m70.5387 68.71654-2.70649-1.57267 2.75117-1.61536.12212.02779 2.64296 1.56572-2.75416 1.60345z"/><path d="m56.27745 68.95085-2.66479-1.57764 2.76507-1.59748.12907.03276 2.64693 1.56572-2.70749 1.57664z"/><path d="m62.11043 69.55053-2.64792-1.56572 2.76408-1.60941.12212.02781 2.6648 1.57862-2.72635 1.57367z"/><path d="m47.56423 70.00426-2.64395-1.56571 2.75515-1.60445.12212.0278 2.64395 1.56572-2.70848 1.57664z"/><path d="m67.10345 70.69926-2.70649-1.57168 2.75117-1.61636.12212.0278 2.64296 1.56572-2.75416 1.60345z"/><path d="m52.84221 70.93356-2.6648-1.57862 2.77599-1.60245.12709.03375 2.64792 1.56572-2.71742 1.5816z"/><path d="m58.66525 71.54019-2.65884-1.57266 2.775-1.60246.12212.0278 2.6648 1.57863-2.72635 1.57366z"/><path d="m44.16473 72.02371-2.7065-1.57267 2.75117-1.61536.12212.0278 2.64296 1.56572-2.75415 1.60345z"/><path d="m49.48341 72.93018-2.73927-1.59253 2.77401-1.60146.12709.03376 2.65884 1.57267-2.76507 1.5965z"/><path d="m55.21511 73.52887-2.63204-1.55877 2.75317-1.61636.12211.02781 2.66481 1.57862-2.71941 1.5687z"/><path d="m40.62225 74.01139-2.64296-1.56572 2.76409-1.6094.12212.0278 2.64395 1.56572-2.71842 1.5816z"/><path d="m60.15651 74.65376-2.64396-1.56572 2.76508-1.61039.12212.0278 2.65488 1.57267-2.72934 1.57564z"/><path d="m45.98164 74.89403-2.66481-1.57763 2.76607-1.59749.12709.03375 2.65984 1.57267-2.71941 1.5687z"/><path d="m51.76993 75.51853-2.63303-1.55877 2.75416-1.61635.12212.0278 2.6648 1.57863-2.71941 1.56869z"/><path d="m37.15622 76.01297-2.64296-1.56572 2.76508-1.6104.12212.0278 2.64395 1.56572-2.71841 1.5826z"/><path d="m56.72126 76.63647-2.64296-1.56571 2.76408-1.60941.12212.0278 2.64396 1.56572-2.71842 1.5816z"/><path d="m42.54639 76.87774-2.66381-1.57764 2.76508-1.59749.14297.02781 2.63203 1.55876-2.70749 1.58856z"/><path d="m48.32475 77.5072-2.63303-1.55877 2.75416-1.61635.12212.0278 2.66381 1.57764-2.71842 1.56968z"/><path d="m33.69119 78.01356-2.65388-1.57267 2.76508-1.5965.13701.02184 2.62707 1.55877-2.70749 1.58856z"/><path d="m53.28601 78.62019-2.64395-1.56572 2.76508-1.6104.12311.0278 2.64296 1.56571-2.71842 1.58261z"/><path d="m39.11213 78.86144-2.66579-1.57862 2.776-1.60345.12807.03376 2.64793 1.56572-2.71743 1.58259z"/><path d="m44.87858 79.49686-2.63203-1.55876 2.75415-1.61635.12212.02779 2.6648 1.57764-2.7194 1.56968z"/><path d="m57.84615 80.02208-2.7065-1.57266 20.17068-11.6739.138.02184 2.62608 1.55778-20.17266 11.67588z"/><path d="m49.85076 80.6029-2.64296-1.56572 2.76508-1.60941.12212.0278 2.64296 1.56572-2.71743 1.58161z"/><path d="m35.75333 80.85706-2.71941-1.57961 2.75416-1.61437.12708.03376 2.64793 1.56572-2.75416 1.60344z"/><path d="m41.43341 81.48554-2.63204-1.55877 2.75316-1.61635.12312.0278 2.6638 1.57763-2.71841 1.56969z"/><path d="m26.43348 82.20337-2.64296-1.56572 6.54584-3.79268.12212.0278 2.65388 1.57267-6.5101 3.75793z"/><path d="m46.4165 82.58661-2.64395-1.56572 2.76508-1.6104.12212.0278 2.64395 1.56572-2.71841 1.5826z"/><path d="m53.22346 82.63327-2.64395-1.56572 3.76388-2.18625.13701.02184 2.62708 1.55877-3.71524 2.17136z"/><path d="m48.87082 85.14616-2.65388-1.57267 3.65169-2.1088.12212.0278 2.64296 1.56571-3.59411 2.08796z"/><path d="m33.29405 86.18766-2.64792-1.56572 7.43344-4.30498.12212.0278 2.6648 1.57863-7.39472 4.26924z"/><path d="m83.03268 65.47986-2.7055-1.57267 8.81548-5.11713.12213.0278 2.65387 1.57267-8.82938 5.09826z"/><path d="m75.89114 61.59386-2.64792-1.56473 2.75416-1.60444.138.02184 2.63899 1.56572-2.70651 1.58657z"/><path d="m79.25491 59.65185-2.64793-1.56473 5.67015-3.28731.12212.0278 2.66381 1.57763-5.63044 3.25157z"/></g><path d="m81.17642 81.62507-11.67879 6.78697c-.63005.36615-1.40784.36725-2.03893.00289l-7.45196-4.30239c-.67688-.39079-.67826-1.36729-.00249-1.76001l11.67879-6.78696c.63006-.36615 1.40785-.36726 2.03894-.00289l7.45196 4.30239c.67686.39079.67824 1.36729.00248 1.76z" fill="#bac1ce"/></g></g></g><g><g><path d="m25.4225 42.57286c.41296-.23842.74157-.05116.74289.41521.00134.47452-.32513 1.03999-.73809 1.27842-.40586.23432-.74161.05119-.74296-.42334-.00131-.46636.3323-1.03596.73816-1.27029z" fill="#fff"/></g><g><path d="m28.14248 41.00249c.41301-.23845.74161-.05119.74294.41518.00135.47453-.32512 1.03999-.73813 1.27845-.41296.23842-.74157.05116-.74291-.42336-.00133-.46638.32514-1.03185.7381-1.27027z" fill="#fff"/></g><g><path d="m30.86245 39.43211c.41301-.23845.74161-.05119.74294.41518.00135.47453-.32512 1.03999-.73813 1.27845-.41296.23842-.74157.05116-.74291-.42336-.00133-.46638.32514-1.03185.7381-1.27027z" fill="#fff"/></g></g><g><g><path d="m35.05828 49.8825.00396 1.39788-2.11882 1.2233-.00396-1.39788z" fill="#75ca75"/></g><g><path d="m35.16879 46.35676.0027.95242-6.7376 3.88995-.0027-.95242z" fill="#4c7891"/></g><g><path d="m37.3684 42.87885.0027.95243-8.94346 5.1635-.0027-.95243z" fill="#576cfb"/></g><g><path d="m41.48582 40.50166.0027.95242-3.12152 1.80221-.0027-.95242z" fill="#576cfb"/></g><g><path d="m44.05446 46.78883.02763 9.74677-2.11882 1.2233-.02763-9.74677z" fill="#5b5e71"/></g><g><path d="m44.04852 44.69199.00396 1.39788-2.11882 1.2233-.00396-1.39788z" fill="#5b5e71"/></g><g><path d="m44.02622 36.82705.0027.95237-15.60753 9.01101-.0027-.95238z" fill="#cad0dd"/></g><g><path d="m30.58041 57.37608.00397 1.39788-2.12553 1.22718-.00397-1.39788z" fill="#f9607f"/></g><g><path d="m30.58636 59.47293.01374 4.84651-2.12553 1.22718-.01374-4.84652z" fill="#f9607f"/></g><g><path d="m35.06423 51.97935.02763 9.74677-2.11882 1.2233-.02763-9.74677z" fill="#75ca75"/></g><g><path d="m39.56964 51.83226.02069 7.29667-2.11891 1.22335-.02069-7.29667z" fill="#576cfb"/></g><g><path d="m39.5637 49.73547.00397 1.39787-2.11892 1.22336-.00396-1.39788z" fill="#576cfb"/></g><g><path d="m58.56107 29.62776.02288 8.07236-7.52643 4.34539c.25458-4.66288 3.51305-10.11384 7.50355-12.41775z" fill="#748bfd"/></g><g><path d="m58.56107 29.62776c1.94512-1.12301 3.72556-1.29699 5.07302-.67477l-5.05014 8.74713z" fill="#4c7891"/></g><g><path d="m66.13349 33.93562c.00953 4.78969-3.36137 10.61727-7.52256 13.01682-4.17072 2.40915-7.56062.48564-7.5701-4.30399 0-.19999.00947-.40951.019-.5999l7.52256-4.35165 5.05628-8.74137c1.52354.70463 2.48528 2.43768 2.49482 4.98009z" fill="#9ad898"/></g></g></g><g><g enable-background="new"><g><path d="m93.02417 21.79239-.07515 26.50682-5.64355 3.27968.07515-26.50682z" fill="#efac41"/></g><g><path d="m87.38062 25.07207-.07515 26.50682-5.67469-3.27628.07515-26.50682z" fill="#f9bb4a"/></g><g><path d="m93.02417 21.79239-5.64355 3.27968-5.67469-3.27628 5.64356-3.27968z" fill="#fed57a"/></g></g><g enable-background="new"><g><path d="m106.08385 35.46812-.07514 20.40307-5.64356 3.27967.07515-20.40306z" fill="#4562ef"/></g><g><path d="m100.4403 38.7478-.07515 20.40306-5.68047-3.27962.07515-20.40307z" fill="#576cfb"/></g><g><path d="m106.08385 35.46812-5.64355 3.27968-5.68047-3.27963 5.64355-3.27967z" fill="#748bfd"/></g></g><g><g enable-background="new"><g><path d="m119.14353 49.14385-.07514 14.31197-5.64355 3.26701.07514-14.29931z" fill="#6eba6e"/></g><g><path d="m113.49998 52.42352-.07514 14.29931-5.68048-3.27962.07515-14.29931z" fill="#75ca75"/></g><g><path d="m119.14353 49.14385-5.64355 3.27967-5.68047-3.27962 5.64355-3.27968z" fill="#9ad898"/></g></g></g></g><g><g><path d="m1.01408 101.3886.01287 2.46162c0 .32147.20571.63007.6172.86152l31.73546 18.4524c.82298.47577 2.16034.47577 2.98325 0l17.15365-9.91415c.41149-.23145.6172-.54005.6172-.86151v-2.46162c-.00002.30859-53.11963-8.22966-53.11963-8.53826z" fill="#37617b"/></g><g><path d="m1.64035 100.51955c-.8292.47874-.82539 1.25135-.00971 1.72537l31.74521 18.4483c.81565.47401 2.14949.47875 2.97869.00002l17.15867-9.90656c.82101-.47401.81717-1.24664.00153-1.72064l-31.74521-18.4483c-.81567-.47402-2.14949-.47875-2.9705-.00474z" fill="#4c7891"/></g><g><g><path d="m8.75404 97.7194.33441.19433 5.1804-2.9909-.33441-.19434z" fill="#37617b"/></g><g><path d="m3.59804 102.2011 29.86354 17.34794c.78224.45197 2.03375.45197 2.7986 0l15.2621-8.81306c.78225-.45186.78225-1.16461.0174-1.61658l-29.86355-17.36535c-.76484-.43457-2.03386-.43457-2.7987 0l-4.22399 2.45103.59106.33028c.36497.20858.36497.57355-.0174.78214l-5.45821 3.16367c-.38237.20858-.97343.20858-1.3558 0l-.57366-.34768-4.22399 2.43362c-.76485.45197-.78225 1.18201-.0174 1.63399z" fill="#fff"/></g></g><g><path d="m7.74737 106.87192c-.19111-.11034-.35544-.02715-.35607.19245-.00065.23008.16265.51289.35376.62322l2.55729 1.47645c.20021.11559.35547.01671.35613-.21337.00062-.2196-.1536-.4867-.35381-.60229z" fill="#cad0dd"/></g><g fill="#e4e8f4"><path d="m7.70034 106.73796-.20858.10429c.06949-.03469.15649-.03469.26078.0348l2.55521 1.47749c.19118.10429.34768.38248.34768.59106 0 .1217-.0348.20859-.10429.24339l.20858-.12169c.0522-.0348.10429-.1217.10429-.22598 0-.22599-.15649-.48677-.36508-.60846l-2.55521-1.47749c-.08689-.0521-.19118-.0695-.24338-.01741z"/><path d="m3.19827 104.37394c.06949-.03481.17378-.03481.27808.0348l2.55532 1.47749c.19118.10429.34757.38248.34757.59106 0 .12169-.03469.20858-.10429.24328l.20858-.12159c.0522-.0348.10429-.12169.10429-.22598 0-.22598-.15639-.48677-.36497-.60846l-2.55532-1.47749c-.10429-.0696-.19118-.0696-.26068-.0348z"/></g><g><path d="m3.47003 104.40239c-.20021-.11559-.36452-.03239-.36514.18722-.00065.23007.16261.51286.36283.62846l2.55732 1.47647c.20021.11559.35544.01669.3561-.21339.00062-.2196-.15357-.48669-.35378-.60229z" fill="#cad0dd"/></g><g><path d="m32.92976 103.46875-7.88 4.55005c-1.09003.63-2.82001.63-3.88.01996-.91998-.53998-1.04999-1.34998-.38-1.96997l-.06-.02002c-1.08002-.63-1.06-1.64001.01001-2.26001.23999-.13.51001-.22998.78998-.31-.57001-.58997-.41998-1.34998.47003-1.85999.87-.51001 2.19-.59003 3.20996-.27002.12-.14996.28003-.29999.52002-.42999 1.07001-.63 2.78998-.62 3.88.01001l.03998.03998c1.04004-.33997 2.41998-.25 3.31.26001 1.05999.61999 1.04998 1.61999-.02998 2.23999z" fill="#fed57a"/></g><g><path d="m19.08064 100.43075c-4.25957 2.45927-4.2698 6.43797-.05006 8.89021.86342.50176 1.86149.92575 2.95784 1.2226l-.54061.6784 2.79561-.30386-1.43205-1.35685-.49134.59361c-1.011-.28975-1.94823-.67843-2.75085-1.14486-3.92788-2.28264-3.91928-5.97865.04652-8.2683 3.94136-2.27554 10.32214-2.26845 14.25002.01419s3.91928 5.97865-.02207 8.25419c-2.03186 1.1731-4.81703 1.79498-7.65934 1.71724l-.05126.43815c3.07406.08481 6.07909-.57948 8.25782-1.83737 4.23513-2.44515 4.25764-6.44503.0379-8.89728s-11.113-2.44522-15.34813-.00007z" fill="#afb5bf"/></g></g><g><g><path d="m128.99028 94.00325v.78635l-33.17899 19.28152v-.78635z" fill="#cad0dd"/><path d="m95.81129 113.28477v.78635l-27.00699-15.56129v-.81756z" fill="#d4dae8"/><path d="m128.99028 94.00325-33.17899 19.28152-27.00699-15.5925 33.17898-19.28152z" fill="#e4e8f4"/><g><g><path d="m87.36815 104.95815-1.13536.65979-13.90483-8.02795 1.13537-.6598z" fill="#cad0dd"/></g><g><path d="m93.1022 87.35846-4.28796 2.4919-1.58926-.91757 4.28795-2.49189z" fill="#fa5168"/></g><g><path d="m114.07675 100.47754-3.41664 1.98553-1.58397-.9145 3.41665-1.98554z" fill="#bac1ce"/></g><g enable-background="new"><g><path d="m98.8655 89.07084-5.68208 3.30206-1.58927-.91756 5.68209-3.30207z" fill="#6eba6e"/></g><g><path d="m104.31196 90.96734-6.75936 3.92811-1.5893-.91758 6.75936-3.92811z" fill="#576cfb"/></g><g><path d="m124.54848 94.39204-1.13536.65979-23.43514-13.53028 1.13536-.65979z" fill="#cad0dd"/></g><g><path d="m122.2936 95.70242-1.13536.6598-23.43513-13.53028 1.13536-.6598z" fill="#cad0dd"/></g><g><path d="m107.30814 94.28779-5.38636 3.13021-1.58397-.91451 5.38637-3.13021z" fill="#f9bb4a"/></g><g><path d="m120.03873 97.01282-1.13536.6598-23.43513-13.53029 1.13536-.65979z" fill="#cad0dd"/></g><g><path d="m113.05029 96.01241-6.75937 3.92812-1.58392-.91448 6.75935-3.92811z" fill="#4c7891"/></g><g><path d="m94.63447 100.73542-1.13536.6598-13.90483-8.02796 1.13536-.65979z" fill="#cad0dd"/></g><g><path d="m92.2159 102.14094-1.14064.66287-13.90483-8.02795 1.14064-.66288z" fill="#cad0dd"/></g><g><path d="m109.00723 103.42362-1.13537.65981-23.43513-13.53028 1.13536-.65981z" fill="#cad0dd"/></g><g><path d="m89.79202 103.54955-1.13536.65979-13.90482-8.02795 1.13536-.65981z" fill="#cad0dd"/></g><g><path d="m106.58865 104.82915-1.14064.66286-23.43514-13.53028 1.14065-.66286z" fill="#cad0dd"/></g><g><path d="m100.36636 104.39956c1.83376 1.05872 1.92269 2.73736.29185 3.85134-.0685.06445-.1741.12582-.26389.17799l-.07394.04297-3.49213-2.01618z" fill="#fa5168"/></g><g><path d="m98.04584 104.39956-3.53811 2.05612 3.48683 2.01312c-1.91185 1.07409-4.98478 1.06184-6.88764-.03678-1.92947-1.11398-1.93963-2.91844-.02272-4.03243 1.91165-1.11092 5.03216-1.11401 6.96164-.00003z" fill="#cad0dd"/></g></g></g></g></g><g><path d="m88.62691 92.66539c4.4229-2.54823 11.5942-2.54823 15.98072 0 1.83834 1.07387 2.9031 2.42075 3.18522 3.80406-.29123 1.41058-1.37421 2.77568-3.24893 3.84955-4.4229 2.54817-11.59421 2.54817-15.98983 0-1.82013-1.06476-2.88489-2.41169-3.17612-3.80405.29123-1.4106 1.37421-2.77569 3.24894-3.84956z" fill="#748bfd" opacity=".3"/><g><path d="m83.82428 95.73074.01175 2.82915c0 .78652.22312 1.56136.65733 2.31262.46975.83352 1.20919 1.62003 2.20715 2.33619.25823.17605.53996.35217.83345.52821 4.96572 2.88791 13.05416 2.88791 18.05514 0 2.51224-1.44392 3.76829-3.35744 3.76829-5.25921l-.01175-2.82915c0 .01168 0 .03519-.01161.04694-.047.26998-.61047.49303-1.52617.6809-.01176 0-.02351.01175-.03526.01175.01175.02343.0235.05869.0235.08212-.29348 1.40874-1.37355 2.77055-3.25182 3.85054-4.42576 2.54742-11.59849 2.54742-15.989 0-1.81952-1.06824-2.88798-2.4183-3.18147-3.80354 0-.02351.01175-.047.0235-.07043h-.03525c-.91557-.18787-1.46742-.41092-1.52603-.66915-.01175-.01175-.01175-.03526-.01175-.04694z" fill="#474b59"/><path d="m83.83603 95.77768c.03526 1.85484 1.2678 3.72136 3.68617 5.1301 4.96573 2.8879 13.05416 2.8879 18.05515 0 2.48874-1.44392 3.74493-3.33401 3.75668-5.21228.01161-1.90177-1.22094-3.79179-3.69807-5.23578-4.95397-2.87609-13.04227-2.87609-18.03149 0-2.54765 1.46741-3.80355 3.39269-3.76844 5.31796zm1.53778.73959c0-.02351.01175-.047.0235-.07043.30524-1.38524 1.38531-2.73529 3.22832-3.78011 4.42577-2.54742 11.59864-2.54742 15.97739 0 1.80776 1.04482 2.86433 2.35963 3.16957 3.72143.01175.02343.0235.05869.0235.08212-.29348 1.40874-1.37355 2.77055-3.25182 3.85054-4.42576 2.54742-11.59849 2.54742-15.989 0-1.81951-1.06826-2.88797-2.41832-3.18146-3.80355z" fill="#5b5e71"/><path d="m85.36206 96.44683c0 .02343.01175.04693.01175.07043 0-.02351.01175-.047.0235-.07043.30524-1.38524 1.38531-2.73529 3.22832-3.78011 4.42577-2.54742 11.59864-2.54742 15.97739 0 1.80776 1.04482 2.86433 2.35963 3.16957 3.72143.01175.02343.0235.05869.0235.08212.01176-.03518.01176-.05869.01176-.09386.36385-1.90177-.70448-3.87397-3.20483-5.31796-4.37875-2.54742-11.55163-2.54742-15.97739 0-2.54734 1.45565-3.63916 3.47486-3.26357 5.38838z" fill="#474b59"/><path d="m82.26772 102.16431c.20417-.11665.47633-.09724.78742.07773.61245.35969 1.10824 1.21516 1.10824 1.92486 0 .34023-.12638.58325-.32082.69991l3.20239-1.8578c.19444-.11665.32082-.35969.32082-.70969 0-.70964-.4958-1.56512-1.10824-1.91507-.31109-.18471-.59299-.19444-.78742-.07779z" fill="#748bfd"/><path d="m83.05781 102.24581c-.61446-.35476-1.11262-.07088-1.11462.63519-.00198.69893.49294 1.55617 1.10739 1.91093.61446.35475 1.11262.07087 1.1146-.62805.002-.70608-.49292-1.56331-1.10737-1.91807z" fill="#f34858"/><g><path d="m67.00881 110.16822c.31185-.17822.74612-.15592 1.22504.12248.96886.54567 1.72612 1.88205 1.72612 2.98454 0 .53459-.1893.91319-.50115 1.09142l15.37387-9.11863c.31178-.17815.50108-.55682.50108-1.10249 0-1.09134-.75726-2.42772-1.72612-2.97339-.47886-.27841-.91319-.31185-1.22498-.12248z" fill="#f9607f"/></g><g><path d="m68.23817 110.28693c-.95277-.55008-1.73029-.10698-1.73339.98783-.00308 1.08662.76939 2.42461 1.72215 2.97469.95987.55418 1.73031.10699 1.73339-.97963.0031-1.0948-.76228-2.4287-1.72215-2.98289z" fill="#f34858"/></g></g></g></g></g></svg>