<svg id="chat-speech-bubbles" xmlns="http://www.w3.org/2000/svg" width="41.655" height="34.001" viewBox="0 0 41.655 34.001">
  <g id="Group_411" data-name="Group 411" transform="translate(0 0)">
    <path id="Path_7277" data-name="Path 7277" d="M16.831,3.478C7.535,3.478,0,9.273,0,16.425a11.586,11.586,0,0,0,4.762,9.024c-.171,2.377-.743,5.285-2.4,6.851,3.3,0,6.67-2.066,8.8-3.682a21.392,21.392,0,0,0,5.668.754c9.3,0,16.831-5.792,16.831-12.947S26.127,3.478,16.831,3.478Z" transform="translate(0 1.701)" fill="#fff"/>
    <path id="Path_7278" data-name="Path 7278" d="M30.706,20.865a10.689,10.689,0,0,0,2.227-6.44C32.933,7.273,25.4,1.478,16.1,1.478A20.04,20.04,0,0,0,5.346,4.466a23.107,23.107,0,0,1,4.283-.4c10.01,0,18.126,6.378,18.126,14.242a12.235,12.235,0,0,1-3.4,8.3c2.126,1.616,5.5,3.687,8.8,3.687C30.812,28.073,30.644,23.138,30.706,20.865Z" transform="translate(8.497 -1.478)" fill="#fff"/>
  </g>
</svg>
