<svg xmlns="http://www.w3.org/2000/svg" xmlns:xlink="http://www.w3.org/1999/xlink" width="436" height="220" viewBox="0 0 436 220">
  <defs>
    <clipPath id="clip-path">
      <rect id="Rectangle_1798" data-name="Rectangle 1798" width="436" height="220" transform="translate(994 1040)" fill="#fff"/>
    </clipPath>
  </defs>
  <g id="Mask_Group_7" data-name="Mask Group 7" transform="translate(-994 -1040)" opacity="0.7" clip-path="url(#clip-path)">
    <g id="Graduation-cuate" transform="translate(978.467 1016.046)">
      <g id="freepik--background-complete--inject-47" transform="translate(43.533 32.986)">
        <path id="Path_8303" data-name="Path 8303" d="M448,116.558H359.34s8.794-24.008,22.319-24.008,17.774,16.568,17.774,16.568,9.128-9.007,16.624-9.007,14.017,11.9,14.017,11.9S440.658,105.611,448,116.558Z" transform="translate(-67.817 -47.5)" fill="#ebebeb"/>
        <path id="Path_8304" data-name="Path 8304" d="M346.238,83.954H304.8s9.277-13.414,16.559-13.414,9.443,8.943,9.443,8.943,5.148-4.174,9.917-3.423S346.238,83.954,346.238,83.954Z" transform="translate(-63.871 -45.907)" fill="#ebebeb"/>
        <path id="Path_8305" data-name="Path 8305" d="M125.785,154.829H45.08s11.058-24.675,22.876-26.215,17.477,18.33,17.477,18.33,7.625-7.022,13.627-7.022,10.622,9.276,10.622,9.276S121.676,142.881,125.785,154.829Z" transform="translate(-45.08 -50.103)" fill="#ebebeb"/>
        <path id="Path_8306" data-name="Path 8306" d="M194.129,62.135H139.62S148.98,44.249,159.1,43.99s15.5,13.534,15.5,13.534S190.446,44.843,194.129,62.135Z" transform="translate(-51.92 -43.986)" fill="#ebebeb"/>
        <path id="Path_8307" data-name="Path 8307" d="M252.21,178.185h-36.8s6.327-12.059,13.182-12.245,10.464,9.128,10.464,9.128S249.724,166.515,252.21,178.185Z" transform="translate(-57.404 -147.428)" fill="#ebebeb"/>
        <rect id="Rectangle_1728" data-name="Rectangle 1728" width="98.127" height="109.685" transform="translate(141.049 65.738)" fill="#dbdbdb"/>
        <rect id="Rectangle_1729" data-name="Rectangle 1729" width="102.654" height="6.661" transform="translate(138.786 59.087)" fill="#ebebeb"/>
        <rect id="Rectangle_1730" data-name="Rectangle 1730" width="48.034" height="6.661" transform="translate(166.105 130.637)" fill="#ebebeb"/>
        <rect id="Rectangle_1731" data-name="Rectangle 1731" width="16.661" height="25.826" transform="translate(153.35 81.629)" fill="#c7c7c7"/>
        <rect id="Rectangle_1732" data-name="Rectangle 1732" width="13.228" height="22.05" transform="translate(155.066 83.521)" fill="#fff"/>
        <rect id="Rectangle_1733" data-name="Rectangle 1733" width="21.438" height="3.711" transform="translate(150.966 107.464)" fill="#ebebeb"/>
        <g id="Group_3953" data-name="Group 3953" transform="translate(155.066 83.531)" opacity="0.5">
          <path id="Path_8308" data-name="Path 8308" d="M225.468,236.03v2.718L212.24,251.986v-5.037l10.928-10.918Z" transform="translate(-212.24 -236.03)" fill="#ebebeb"/>
          <path id="Path_8309" data-name="Path 8309" d="M226.056,253.64v2.523l-3.182,3.182H220.36Z" transform="translate(-212.827 -237.304)" fill="#ebebeb"/>
          <path id="Path_8310" data-name="Path 8310" d="M216.693,236.03l-4.453,4.453v-2.514l1.93-1.939Z" transform="translate(-212.24 -236.03)" fill="#ebebeb"/>
          <path id="Path_8311" data-name="Path 8311" d="M225.748,249.39v.807l-8.84,8.84H216.1Z" transform="translate(-212.519 -236.997)" fill="#ebebeb"/>
        </g>
        <rect id="Rectangle_1734" data-name="Rectangle 1734" width="16.661" height="1.892" transform="translate(153.35 96.49)" fill="#c7c7c7"/>
        <rect id="Rectangle_1735" data-name="Rectangle 1735" width="16.661" height="25.826" transform="translate(181.782 81.629)" fill="#c7c7c7"/>
        <rect id="Rectangle_1736" data-name="Rectangle 1736" width="13.228" height="22.05" transform="translate(183.498 83.521)" fill="#fff"/>
        <rect id="Rectangle_1737" data-name="Rectangle 1737" width="21.438" height="3.711" transform="translate(179.398 107.464)" fill="#ebebeb"/>
        <g id="Group_3954" data-name="Group 3954" transform="translate(183.498 83.531)" opacity="0.5">
          <path id="Path_8312" data-name="Path 8312" d="M256.128,236.03v2.718L242.89,251.986v-5.037l10.928-10.918Z" transform="translate(-242.89 -236.03)" fill="#ebebeb"/>
          <path id="Path_8313" data-name="Path 8313" d="M256.715,253.64v2.523l-3.191,3.182H251.01Z" transform="translate(-243.477 -237.304)" fill="#ebebeb"/>
          <path id="Path_8314" data-name="Path 8314" d="M247.343,236.03l-4.453,4.453v-2.514l1.93-1.939Z" transform="translate(-242.89 -236.03)" fill="#ebebeb"/>
          <path id="Path_8315" data-name="Path 8315" d="M256.407,249.39v.807l-8.84,8.84h-.816Z" transform="translate(-243.169 -236.997)" fill="#ebebeb"/>
        </g>
        <rect id="Rectangle_1738" data-name="Rectangle 1738" width="16.661" height="1.892" transform="translate(181.782 96.49)" fill="#c7c7c7"/>
        <rect id="Rectangle_1739" data-name="Rectangle 1739" width="16.661" height="25.826" transform="translate(210.214 81.629)" fill="#c7c7c7"/>
        <rect id="Rectangle_1740" data-name="Rectangle 1740" width="13.228" height="22.05" transform="translate(211.94 83.521)" fill="#fff"/>
        <rect id="Rectangle_1741" data-name="Rectangle 1741" width="21.438" height="3.711" transform="translate(207.83 107.464)" fill="#ebebeb"/>
        <g id="Group_3955" data-name="Group 3955" transform="translate(211.931 83.531)" opacity="0.5">
          <path id="Path_8316" data-name="Path 8316" d="M286.777,236.03v2.718L273.54,251.986v-5.037l10.928-10.918Z" transform="translate(-273.54 -236.03)" fill="#ebebeb"/>
          <path id="Path_8317" data-name="Path 8317" d="M287.365,253.64v2.523l-3.182,3.182H281.66Z" transform="translate(-274.128 -237.304)" fill="#ebebeb"/>
          <path id="Path_8318" data-name="Path 8318" d="M278,236.03l-4.462,4.453v-2.514l1.939-1.939Z" transform="translate(-273.54 -236.03)" fill="#ebebeb"/>
          <path id="Path_8319" data-name="Path 8319" d="M287.058,249.39v.807l-8.84,8.84h-.807Z" transform="translate(-273.82 -236.997)" fill="#ebebeb"/>
        </g>
        <rect id="Rectangle_1742" data-name="Rectangle 1742" width="16.661" height="1.892" transform="translate(210.214 96.49)" fill="#c7c7c7"/>
        <rect id="Rectangle_1743" data-name="Rectangle 1743" width="40.807" height="38.126" transform="translate(169.713 137.297)" fill="#c7c7c7"/>
        <rect id="Rectangle_1744" data-name="Rectangle 1744" width="35.316" height="35.316" transform="translate(172.459 140.117)" fill="#fff"/>
        <g id="Group_3956" data-name="Group 3956" transform="translate(172.459 140.117)" opacity="0.5">
          <path id="Path_8320" data-name="Path 8320" d="M267.455,312.91v6.568l-14.017,14.008H246.88Z" transform="translate(-232.14 -298.179)" fill="#ebebeb"/>
          <path id="Path_8321" data-name="Path 8321" d="M240.211,297.03l-9.221,9.221v-6.568l2.662-2.653Z" transform="translate(-230.99 -297.03)" fill="#ebebeb"/>
          <path id="Path_8322" data-name="Path 8322" d="M259.914,297.03,230.99,325.954v-3.275l25.649-25.649Z" transform="translate(-230.99 -297.03)" fill="#ebebeb"/>
          <path id="Path_8323" data-name="Path 8323" d="M268.232,323.65v3.284l-7.338,7.328H257.62Z" transform="translate(-232.917 -298.956)" fill="#ebebeb"/>
          <path id="Path_8324" data-name="Path 8324" d="M266.561,300.56v.6l-31.429,31.429h-.612Z" transform="translate(-231.245 -297.285)" fill="#ebebeb"/>
          <path id="Path_8325" data-name="Path 8325" d="M244.033,297.03,230.99,310.063v-.6l12.43-12.431Z" transform="translate(-230.99 -297.03)" fill="#ebebeb"/>
          <path id="Path_8326" data-name="Path 8326" d="M255.155,297.03,230.99,321.186v-.612l23.553-23.544Z" transform="translate(-230.99 -297.03)" fill="#ebebeb"/>
        </g>
        <rect id="Rectangle_1745" data-name="Rectangle 1745" width="2.273" height="35.316" transform="translate(188.981 140.117)" fill="#c7c7c7"/>
        <rect id="Rectangle_1746" data-name="Rectangle 1746" width="83.173" height="87.589" transform="translate(57.876 87.835)" fill="#dbdbdb"/>
        <path id="Path_8327" data-name="Path 8327" d="M189.11,240.67h7.44v87.589h-3.293Z" transform="translate(-55.501 -152.835)" fill="#c7c7c7"/>
        <rect id="Rectangle_1747" data-name="Rectangle 1747" width="14.573" height="22.579" transform="translate(67.319 99.867)" fill="#c7c7c7"/>
        <rect id="Rectangle_1748" data-name="Rectangle 1748" width="11.568" height="19.277" transform="translate(68.822 101.527)" fill="#fff"/>
        <rect id="Rectangle_1749" data-name="Rectangle 1749" width="18.739" height="3.247" transform="translate(65.232 122.455)" fill="#ebebeb"/>
        <g id="Group_3957" data-name="Group 3957" transform="translate(68.822 101.527)" opacity="0.5">
          <path id="Path_8328" data-name="Path 8328" d="M130.838,255.43v2.384L119.27,269.382v-4.4l9.546-9.555Z" transform="translate(-119.27 -255.43)" fill="#ebebeb"/>
          <path id="Path_8329" data-name="Path 8329" d="M131.351,270.83v2.2l-2.783,2.792H126.36Z" transform="translate(-119.783 -256.544)" fill="#ebebeb"/>
          <path id="Path_8330" data-name="Path 8330" d="M123.166,255.43l-3.9,3.9v-2.208l1.688-1.688Z" transform="translate(-119.27 -255.43)" fill="#ebebeb"/>
          <path id="Path_8331" data-name="Path 8331" d="M131.082,267.11v.714l-7.727,7.727h-.714Z" transform="translate(-119.514 -256.275)" fill="#ebebeb"/>
        </g>
        <rect id="Rectangle_1750" data-name="Rectangle 1750" width="14.573" height="1.651" transform="translate(67.319 112.863)" fill="#c7c7c7"/>
        <rect id="Rectangle_1751" data-name="Rectangle 1751" width="14.573" height="22.579" transform="translate(92.18 99.867)" fill="#c7c7c7"/>
        <rect id="Rectangle_1752" data-name="Rectangle 1752" width="11.568" height="19.277" transform="translate(93.683 101.527)" fill="#fff"/>
        <rect id="Rectangle_1753" data-name="Rectangle 1753" width="18.739" height="3.247" transform="translate(90.093 122.455)" fill="#ebebeb"/>
        <g id="Group_3958" data-name="Group 3958" transform="translate(93.674 101.527)" opacity="0.5">
          <path id="Path_8332" data-name="Path 8332" d="M157.637,255.43v2.384L146.06,269.382v-4.4l9.555-9.555Z" transform="translate(-146.06 -255.43)" fill="#ebebeb"/>
          <path id="Path_8333" data-name="Path 8333" d="M158.151,270.83v2.2l-2.792,2.792h-2.2Z" transform="translate(-146.574 -256.544)" fill="#ebebeb"/>
          <path id="Path_8334" data-name="Path 8334" d="M149.956,255.43l-3.9,3.9v-2.208l1.7-1.688Z" transform="translate(-146.06 -255.43)" fill="#ebebeb"/>
          <path id="Path_8335" data-name="Path 8335" d="M157.882,267.11v.714l-7.727,7.727h-.714Z" transform="translate(-146.305 -256.275)" fill="#ebebeb"/>
        </g>
        <rect id="Rectangle_1754" data-name="Rectangle 1754" width="14.573" height="1.651" transform="translate(92.18 112.863)" fill="#c7c7c7"/>
        <rect id="Rectangle_1755" data-name="Rectangle 1755" width="14.573" height="22.579" transform="translate(117.041 99.867)" fill="#c7c7c7"/>
        <rect id="Rectangle_1756" data-name="Rectangle 1756" width="11.568" height="19.277" transform="translate(118.544 101.527)" fill="#fff"/>
        <rect id="Rectangle_1757" data-name="Rectangle 1757" width="18.739" height="3.247" transform="translate(114.954 122.455)" fill="#ebebeb"/>
        <g id="Group_3959" data-name="Group 3959" transform="translate(118.544 101.527)" opacity="0.5">
          <path id="Path_8336" data-name="Path 8336" d="M184.438,255.43v2.384L172.87,269.382v-4.4l9.546-9.555Z" transform="translate(-172.87 -255.43)" fill="#ebebeb"/>
          <path id="Path_8337" data-name="Path 8337" d="M184.951,270.83v2.2l-2.783,2.792H179.96Z" transform="translate(-173.383 -256.544)" fill="#ebebeb"/>
          <path id="Path_8338" data-name="Path 8338" d="M176.757,255.43l-3.887,3.9v-2.208l1.688-1.688Z" transform="translate(-172.87 -255.43)" fill="#ebebeb"/>
          <path id="Path_8339" data-name="Path 8339" d="M184.682,267.11v.714l-7.727,7.727h-.714Z" transform="translate(-173.114 -256.275)" fill="#ebebeb"/>
        </g>
        <rect id="Rectangle_1758" data-name="Rectangle 1758" width="14.573" height="1.651" transform="translate(117.041 112.863)" fill="#c7c7c7"/>
        <rect id="Rectangle_1759" data-name="Rectangle 1759" width="14.573" height="22.579" transform="translate(67.319 133.967)" fill="#c7c7c7"/>
        <rect id="Rectangle_1760" data-name="Rectangle 1760" width="11.568" height="19.277" transform="translate(68.822 135.627)" fill="#fff"/>
        <rect id="Rectangle_1761" data-name="Rectangle 1761" width="18.739" height="3.247" transform="translate(65.232 156.555)" fill="#ebebeb"/>
        <g id="Group_3960" data-name="Group 3960" transform="translate(68.822 135.627)" opacity="0.5">
          <path id="Path_8340" data-name="Path 8340" d="M130.838,292.19v2.384L119.27,306.142v-4.4l9.546-9.555Z" transform="translate(-119.27 -292.19)" fill="#ebebeb"/>
          <path id="Path_8341" data-name="Path 8341" d="M131.351,307.59v2.2l-2.783,2.792H126.36Z" transform="translate(-119.783 -293.304)" fill="#ebebeb"/>
          <path id="Path_8342" data-name="Path 8342" d="M123.166,292.19l-3.9,3.9v-2.208l1.688-1.688Z" transform="translate(-119.27 -292.19)" fill="#ebebeb"/>
          <path id="Path_8343" data-name="Path 8343" d="M131.082,303.87v.705l-7.727,7.737h-.714Z" transform="translate(-119.514 -293.035)" fill="#ebebeb"/>
        </g>
        <rect id="Rectangle_1762" data-name="Rectangle 1762" width="14.573" height="1.651" transform="translate(67.319 146.963)" fill="#c7c7c7"/>
        <rect id="Rectangle_1763" data-name="Rectangle 1763" width="14.573" height="22.579" transform="translate(92.18 133.967)" fill="#c7c7c7"/>
        <rect id="Rectangle_1764" data-name="Rectangle 1764" width="11.568" height="19.277" transform="translate(93.683 135.627)" fill="#fff"/>
        <rect id="Rectangle_1765" data-name="Rectangle 1765" width="18.739" height="3.247" transform="translate(90.093 156.555)" fill="#ebebeb"/>
        <g id="Group_3961" data-name="Group 3961" transform="translate(93.674 135.627)" opacity="0.5">
          <path id="Path_8344" data-name="Path 8344" d="M157.637,292.19v2.384L146.06,306.142v-4.4l9.555-9.555Z" transform="translate(-146.06 -292.19)" fill="#ebebeb"/>
          <path id="Path_8345" data-name="Path 8345" d="M158.151,307.59v2.2l-2.792,2.792h-2.2Z" transform="translate(-146.574 -293.304)" fill="#ebebeb"/>
          <path id="Path_8346" data-name="Path 8346" d="M149.956,292.19l-3.9,3.9v-2.208l1.7-1.688Z" transform="translate(-146.06 -292.19)" fill="#ebebeb"/>
          <path id="Path_8347" data-name="Path 8347" d="M157.882,303.87v.705l-7.727,7.737h-.714Z" transform="translate(-146.305 -293.035)" fill="#ebebeb"/>
        </g>
        <rect id="Rectangle_1766" data-name="Rectangle 1766" width="14.573" height="1.651" transform="translate(92.18 146.963)" fill="#c7c7c7"/>
        <rect id="Rectangle_1767" data-name="Rectangle 1767" width="14.573" height="22.579" transform="translate(117.041 133.967)" fill="#c7c7c7"/>
        <rect id="Rectangle_1768" data-name="Rectangle 1768" width="11.568" height="19.277" transform="translate(118.544 135.627)" fill="#fff"/>
        <rect id="Rectangle_1769" data-name="Rectangle 1769" width="18.739" height="3.247" transform="translate(114.954 156.555)" fill="#ebebeb"/>
        <g id="Group_3962" data-name="Group 3962" transform="translate(118.544 135.627)" opacity="0.5">
          <path id="Path_8348" data-name="Path 8348" d="M184.438,292.19v2.384L172.87,306.142v-4.4l9.546-9.555Z" transform="translate(-172.87 -292.19)" fill="#ebebeb"/>
          <path id="Path_8349" data-name="Path 8349" d="M184.951,307.59v2.2l-2.783,2.792H179.96Z" transform="translate(-173.383 -293.304)" fill="#ebebeb"/>
          <path id="Path_8350" data-name="Path 8350" d="M176.757,292.19l-3.887,3.9v-2.208l1.688-1.688Z" transform="translate(-172.87 -292.19)" fill="#ebebeb"/>
          <path id="Path_8351" data-name="Path 8351" d="M184.682,303.87v.705l-7.727,7.737h-.714Z" transform="translate(-173.114 -293.035)" fill="#ebebeb"/>
        </g>
        <rect id="Rectangle_1770" data-name="Rectangle 1770" width="14.573" height="1.651" transform="translate(117.041 146.963)" fill="#c7c7c7"/>
        <rect id="Rectangle_1771" data-name="Rectangle 1771" width="86.012" height="6.661" transform="translate(55.037 81.174)" fill="#ebebeb"/>
        <rect id="Rectangle_1772" data-name="Rectangle 1772" width="83.173" height="87.589" transform="translate(322.312 175.424) rotate(180)" fill="#dbdbdb"/>
        <path id="Path_8352" data-name="Path 8352" d="M310.31,240.67h-7.44v87.589h3.293Z" transform="translate(-63.731 -152.835)" fill="#c7c7c7"/>
        <rect id="Rectangle_1773" data-name="Rectangle 1773" width="14.573" height="22.579" transform="translate(312.877 122.455) rotate(180)" fill="#c7c7c7"/>
        <rect id="Rectangle_1774" data-name="Rectangle 1774" width="11.568" height="19.277" transform="translate(311.375 120.794) rotate(180)" fill="#fff"/>
        <rect id="Rectangle_1775" data-name="Rectangle 1775" width="18.739" height="3.247" transform="translate(314.955 125.702) rotate(180)" fill="#ebebeb"/>
        <g id="Group_3963" data-name="Group 3963" transform="translate(299.797 101.527)" opacity="0.5">
          <path id="Path_8353" data-name="Path 8353" d="M368.26,255.43v2.384l11.577,11.568v-4.4l-9.555-9.555Z" transform="translate(-368.26 -255.43)" fill="#ebebeb"/>
          <path id="Path_8354" data-name="Path 8354" d="M368.26,270.83v2.2l2.783,2.792h2.208Z" transform="translate(-368.26 -256.544)" fill="#ebebeb"/>
          <path id="Path_8355" data-name="Path 8355" d="M376.54,255.43l3.9,3.9v-2.208l-1.7-1.688Z" transform="translate(-368.859 -255.43)" fill="#ebebeb"/>
          <path id="Path_8356" data-name="Path 8356" d="M368.26,267.11v.714l7.727,7.727h.714Z" transform="translate(-368.26 -256.275)" fill="#ebebeb"/>
        </g>
        <rect id="Rectangle_1776" data-name="Rectangle 1776" width="14.573" height="1.651" transform="translate(312.877 114.514) rotate(180)" fill="#c7c7c7"/>
        <rect id="Rectangle_1777" data-name="Rectangle 1777" width="14.573" height="22.579" transform="translate(288.016 122.455) rotate(180)" fill="#c7c7c7"/>
        <rect id="Rectangle_1778" data-name="Rectangle 1778" width="11.568" height="19.277" transform="translate(286.514 120.794) rotate(180)" fill="#fff"/>
        <rect id="Rectangle_1779" data-name="Rectangle 1779" width="18.739" height="3.247" transform="translate(290.094 125.702) rotate(180)" fill="#ebebeb"/>
        <g id="Group_3964" data-name="Group 3964" transform="translate(274.936 101.527)" opacity="0.5">
          <path id="Path_8357" data-name="Path 8357" d="M341.46,255.43v2.384l11.577,11.568v-4.4l-9.555-9.555Z" transform="translate(-341.46 -255.43)" fill="#ebebeb"/>
          <path id="Path_8358" data-name="Path 8358" d="M341.46,270.83v2.2l2.783,2.792h2.208Z" transform="translate(-341.46 -256.544)" fill="#ebebeb"/>
          <path id="Path_8359" data-name="Path 8359" d="M349.74,255.43l3.9,3.9v-2.208l-1.7-1.688Z" transform="translate(-342.059 -255.43)" fill="#ebebeb"/>
          <path id="Path_8360" data-name="Path 8360" d="M341.46,267.11v.714l7.727,7.727h.714Z" transform="translate(-341.46 -256.275)" fill="#ebebeb"/>
        </g>
        <rect id="Rectangle_1780" data-name="Rectangle 1780" width="14.573" height="1.651" transform="translate(288.016 114.514) rotate(180)" fill="#c7c7c7"/>
        <rect id="Rectangle_1781" data-name="Rectangle 1781" width="14.573" height="22.579" transform="translate(263.146 122.455) rotate(180)" fill="#c7c7c7"/>
        <rect id="Rectangle_1782" data-name="Rectangle 1782" width="11.568" height="19.277" transform="translate(261.653 120.794) rotate(180)" fill="#fff"/>
        <rect id="Rectangle_1783" data-name="Rectangle 1783" width="18.739" height="3.247" transform="translate(265.233 125.702) rotate(180)" fill="#ebebeb"/>
        <g id="Group_3965" data-name="Group 3965" transform="translate(250.076 101.527)" opacity="0.5">
          <path id="Path_8361" data-name="Path 8361" d="M314.66,255.43v2.384l11.568,11.568v-4.4l-9.546-9.555Z" transform="translate(-314.66 -255.43)" fill="#ebebeb"/>
          <path id="Path_8362" data-name="Path 8362" d="M314.66,270.83v2.2l2.792,2.792h2.2Z" transform="translate(-314.66 -256.544)" fill="#ebebeb"/>
          <path id="Path_8363" data-name="Path 8363" d="M322.94,255.43l3.887,3.9v-2.208l-1.688-1.688Z" transform="translate(-315.259 -255.43)" fill="#ebebeb"/>
          <path id="Path_8364" data-name="Path 8364" d="M314.66,267.11v.714l7.727,7.727h.714Z" transform="translate(-314.66 -256.275)" fill="#ebebeb"/>
        </g>
        <rect id="Rectangle_1784" data-name="Rectangle 1784" width="14.573" height="1.651" transform="translate(263.146 114.514) rotate(180)" fill="#c7c7c7"/>
        <rect id="Rectangle_1785" data-name="Rectangle 1785" width="14.573" height="22.579" transform="translate(312.877 156.555) rotate(180)" fill="#c7c7c7"/>
        <rect id="Rectangle_1786" data-name="Rectangle 1786" width="11.568" height="19.277" transform="translate(311.375 154.895) rotate(180)" fill="#fff"/>
        <rect id="Rectangle_1787" data-name="Rectangle 1787" width="18.739" height="3.247" transform="translate(314.955 159.802) rotate(180)" fill="#ebebeb"/>
        <g id="Group_3966" data-name="Group 3966" transform="translate(299.797 135.627)" opacity="0.5">
          <path id="Path_8365" data-name="Path 8365" d="M368.26,292.19v2.384l11.577,11.568v-4.4l-9.555-9.555Z" transform="translate(-368.26 -292.19)" fill="#ebebeb"/>
          <path id="Path_8366" data-name="Path 8366" d="M368.26,307.59v2.2l2.783,2.792h2.208Z" transform="translate(-368.26 -293.304)" fill="#ebebeb"/>
          <path id="Path_8367" data-name="Path 8367" d="M376.54,292.19l3.9,3.9v-2.208l-1.7-1.688Z" transform="translate(-368.859 -292.19)" fill="#ebebeb"/>
          <path id="Path_8368" data-name="Path 8368" d="M368.26,303.87v.705l7.727,7.737h.714Z" transform="translate(-368.26 -293.035)" fill="#ebebeb"/>
        </g>
        <rect id="Rectangle_1788" data-name="Rectangle 1788" width="14.573" height="1.651" transform="translate(312.877 148.615) rotate(180)" fill="#c7c7c7"/>
        <rect id="Rectangle_1789" data-name="Rectangle 1789" width="14.573" height="22.579" transform="translate(288.016 156.555) rotate(180)" fill="#c7c7c7"/>
        <rect id="Rectangle_1790" data-name="Rectangle 1790" width="11.568" height="19.277" transform="translate(286.514 154.895) rotate(180)" fill="#fff"/>
        <rect id="Rectangle_1791" data-name="Rectangle 1791" width="18.739" height="3.247" transform="translate(290.094 159.802) rotate(180)" fill="#ebebeb"/>
        <g id="Group_3967" data-name="Group 3967" transform="translate(274.936 135.627)" opacity="0.5">
          <path id="Path_8369" data-name="Path 8369" d="M341.46,292.19v2.384l11.577,11.568v-4.4l-9.555-9.555Z" transform="translate(-341.46 -292.19)" fill="#ebebeb"/>
          <path id="Path_8370" data-name="Path 8370" d="M341.46,307.59v2.2l2.783,2.792h2.208Z" transform="translate(-341.46 -293.304)" fill="#ebebeb"/>
          <path id="Path_8371" data-name="Path 8371" d="M349.74,292.19l3.9,3.9v-2.208l-1.7-1.688Z" transform="translate(-342.059 -292.19)" fill="#ebebeb"/>
          <path id="Path_8372" data-name="Path 8372" d="M341.46,303.87v.705l7.727,7.737h.714Z" transform="translate(-341.46 -293.035)" fill="#ebebeb"/>
        </g>
        <rect id="Rectangle_1792" data-name="Rectangle 1792" width="14.573" height="1.651" transform="translate(288.016 148.615) rotate(180)" fill="#c7c7c7"/>
        <rect id="Rectangle_1793" data-name="Rectangle 1793" width="14.573" height="22.579" transform="translate(263.146 156.555) rotate(180)" fill="#c7c7c7"/>
        <rect id="Rectangle_1794" data-name="Rectangle 1794" width="11.568" height="19.277" transform="translate(261.653 154.895) rotate(180)" fill="#fff"/>
        <rect id="Rectangle_1795" data-name="Rectangle 1795" width="18.739" height="3.247" transform="translate(265.233 159.802) rotate(180)" fill="#ebebeb"/>
        <g id="Group_3968" data-name="Group 3968" transform="translate(250.076 135.627)" opacity="0.5">
          <path id="Path_8373" data-name="Path 8373" d="M314.66,292.19v2.384l11.568,11.568v-4.4l-9.546-9.555Z" transform="translate(-314.66 -292.19)" fill="#ebebeb"/>
          <path id="Path_8374" data-name="Path 8374" d="M314.66,307.59v2.2l2.792,2.792h2.2Z" transform="translate(-314.66 -293.304)" fill="#ebebeb"/>
          <path id="Path_8375" data-name="Path 8375" d="M322.94,292.19l3.887,3.9v-2.208l-1.688-1.688Z" transform="translate(-315.259 -292.19)" fill="#ebebeb"/>
          <path id="Path_8376" data-name="Path 8376" d="M314.66,303.87v.705l7.727,7.737h.714Z" transform="translate(-314.66 -293.035)" fill="#ebebeb"/>
        </g>
        <rect id="Rectangle_1796" data-name="Rectangle 1796" width="14.573" height="1.651" transform="translate(263.146 148.615) rotate(180)" fill="#c7c7c7"/>
        <rect id="Rectangle_1797" data-name="Rectangle 1797" width="86.012" height="6.661" transform="translate(325.141 87.835) rotate(180)" fill="#ebebeb"/>
        <path id="Path_8377" data-name="Path 8377" d="M281.162,200.48v7.876H213.62V200.48h11.957s5.835-8.97,21.809-8.97,21.828,8.97,21.828,8.97Z" transform="translate(-57.274 -149.278)" fill="#dbdbdb"/>
      </g>
      <g id="freepik--Shadow--inject-47" transform="translate(59.201 409.185)">
        <ellipse id="Ellipse_2108" data-name="Ellipse 2108" cx="174.426" cy="15.584" rx="174.426" ry="15.584" fill="#ebebeb"/>
      </g>
      <g id="freepik--character-2--inject-47" transform="translate(220.9 88.502)">
        <path id="Path_8398" data-name="Path 8398" d="M306.472,333s18.84,31.327,18.85,31.354c3.636,5.965,6.716,11.271,8.052,14.156h0a4.9,4.9,0,0,1,.686,2.115s0,.046,0,.056c-1.039,2.291-47.913,32.718-49.907,33.228s-3.609-5.13-2.727-7.764,13.618-22.31,13.618-22.31L276.49,352.341Z" transform="translate(-239.189 -104.099)" fill="#fcaa98"/>
        <path id="Path_8399" data-name="Path 8399" d="M318.087,346.095,286.9,363.878s-26.995-38.3-32.4-61.429c-3.85-16.457,30.547-93.1,30.547-93.1l32.727,1.28s-29.388,74.212-27.829,81.874C291.844,301.864,318.087,346.095,318.087,346.095Z" transform="translate(-237.576 -95.153)" fill="#fcaa98"/>
        <path id="Path_8400" data-name="Path 8400" d="M334.436,383.6v.056c-1.048,2.291-47.922,32.718-49.907,33.228s-3.609-5.13-2.727-7.764c.482-1.429,4.406-7.811,7.922-13.386-3.265,5.417-10.028,21.243,39.407-22.727,2.078,3.534,3.711,6.494,4.638,8.432h0A4.823,4.823,0,0,1,334.436,383.6Z" transform="translate(-239.556 -106.994)" fill="#263238"/>
        <path id="Path_8401" data-name="Path 8401" d="M358.86,267.208l22.329-23.637c5.13-4.759,12.43-12.059,13.729-12.161,2.44.566,42.208,40.733,43.108,42.588s-4.3,4.555-7.059,4.221-24.583-8.887-24.583-8.887l-23.59,23.507Z" transform="translate(-245.149 -96.749)" fill="#fcaa98"/>
        <path id="Path_8402" data-name="Path 8402" d="M432.78,278.259c-1.391-.176-7.533-2.393-13.34-4.573,6.707,1.28,19.74,1.1-35.51-30.946,5.037-4.722,11.568-11.215,12.792-11.289,2.449.566,42.217,40.733,43.108,42.588S435.535,278.593,432.78,278.259Z" transform="translate(-246.963 -96.752)" fill="#263238"/>
        <path id="Path_8403" data-name="Path 8403" d="M287.74,209.36s2.059,11.484,4.091,20.77c1.475,6.781,3.033,12.755,4.035,13.4s6.7,3.469,8.571,4.332c0,0,7.857,44.453,16.7,59.6,3.043,5.186,18.729,11.735,27.208,7.421,19.889-10.2,45.7-39.935,45.7-39.935L369.92,248.479l-25.974,25.51c-4.518-11.039-5.306-32.468-5.306-32.468s.928-20.983-5.761-30.427Z" transform="translate(-240.003 -95.154)" fill="#fcaa98"/>
        <path id="Path_8404" data-name="Path 8404" d="M284.606,209.34s-32.134,63.692-32.737,89.852c-.195,8.442,4.054,19.2,4.054,19.2s30.974,5.649,48.423-2.124,25.046-23.4,32.672-36.559c3.367-5.816,5.918-7.282,5.918-7.282s-5.918-26.967-6.011-29.972c0,0,1.456-19.666-6.6-31.364Z" transform="translate(-237.407 -95.152)" fill="#263238"/>
        <path id="Path_8405" data-name="Path 8405" d="M314.481,121.593c-9.564,9.722-11.03,34.193,1.41,50.362,10.538,13.692,34.323,15.77,44.342,7.282,10.622-9.045,8.711-23.284.649-30.056-8.349-6.994-18.061-4.852-23.145-11.132-2.43-3.006-3.46-9.462-6.865-14.054C327.079,118.875,319.389,116.6,314.481,121.593Z" transform="translate(-241.392 -88.602)" fill="#263238"/>
        <path id="Path_8406" data-name="Path 8406" d="M335.37,129.05a41.838,41.838,0,0,0,2.829,6.364,16.187,16.187,0,0,0,4.564,5.343,10.473,10.473,0,0,0,3.265,1.447c1.122.334,2.254.612,3.377.928a67.218,67.218,0,0,1,6.633,1.948,26.5,26.5,0,0,1,6.132,3.006,16.577,16.577,0,0,1,7.18,11.16,29.071,29.071,0,0,1,.353,6.9,26.9,26.9,0,0,0,.065-6.967,17.569,17.569,0,0,0-2.273-6.642,16.467,16.467,0,0,0-4.842-5.121,27.246,27.246,0,0,0-6.289-3.173,62.221,62.221,0,0,0-6.735-1.9c-1.122-.278-2.245-.547-3.349-.853a11.465,11.465,0,0,1-3.1-1.3,15.678,15.678,0,0,1-4.573-5,47.577,47.577,0,0,1-3.237-6.141Z" transform="translate(-243.449 -89.343)" fill="#263238"/>
        <path id="Path_8407" data-name="Path 8407" d="M312.5,124.14a48.366,48.366,0,0,0-6.2,13.572,40.035,40.035,0,0,0-1.429,14.907,30.737,30.737,0,0,0,1.7,7.347,16.806,16.806,0,0,0,.7,1.753,17.954,17.954,0,0,0,.779,1.716c.3.557.575,1.122.881,1.67l1.011,1.6a38.748,38.748,0,0,0,10.612,10.464c-.928-.807-1.939-1.558-2.857-2.393a36.9,36.9,0,0,1-2.644-2.607,35.324,35.324,0,0,1-4.555-5.826,31.717,31.717,0,0,1-4.759-13.813,40.436,40.436,0,0,1,1.206-14.638,54.012,54.012,0,0,1,2.319-7.05,52.331,52.331,0,0,1,3.237-6.7Z" transform="translate(-241.231 -88.988)" fill="#263238"/>
        <path id="Path_8408" data-name="Path 8408" d="M304.794,161.633c-6.67,3.108-36.178,9-45.2,2.05-9.193-7.078-15.909-35.594-17-39.147-2.551-8.349,23.293-9.351,24.054-7.069,2.709,8.117,5.789,29.462,9.221,30.612,7.217,2.338,14.184,2.672,25.8,4.75C309.748,154.239,312.169,158.2,304.794,161.633Z" transform="translate(-236.723 -88.429)" fill="#fcaa98"/>
        <path id="Path_8409" data-name="Path 8409" d="M242.765,123.866c-1.2-2.672-5.742-15.547-6.169-19.369s-.872-14.907,2.022-15.538,3.284,2.625,3.284,2.625.557-4.7,3.525-5.074,3.4,4.694,3.4,4.694.928-4.8,3.915-4.954,2.57,5,2.57,5,.64-4.425,3.154-3.507c3.033,1.095.928,9.11,1.716,13.293.186.928,5.019,19,5.019,19Z" transform="translate(-236.28 -86.246)" fill="#fcaa98"/>
        <path id="Path_8410" data-name="Path 8410" d="M256.693,91.129c-1.531,5.9-1.178,8.748.649,14.471,0,.111-.121.186-.167.074-2.3-5.436-3.256-8.952-.761-14.638C256.536,90.758,256.767,90.842,256.693,91.129Z" transform="translate(-237.63 -86.58)" fill="#263238"/>
        <path id="Path_8411" data-name="Path 8411" d="M249.9,91.043c-1.057,6.271-.7,9.369.77,15.492a.074.074,0,1,1-.148,0c-1.948-5.891-2.783-9.416-.928-15.538C249.608,90.765,249.9,90.755,249.9,91.043Z" transform="translate(-237.168 -86.577)" fill="#263238"/>
        <path id="Path_8412" data-name="Path 8412" d="M242.358,92.3c-.584,6.141-.343,9.546,1.855,15.315a.121.121,0,0,1-.213.093c-2.783-5.659-3.145-9.907-1.855-15.408C242.256,91.927,242.395,91.908,242.358,92.3Z" transform="translate(-236.653 -86.663)" fill="#263238"/>
        <path id="Path_8413" data-name="Path 8413" d="M267.656,124.457s3.247-6.911,4.007-10.269S270.652,97.3,267.7,97.49c-3.8.278-4.314,8.293-4.054,12.254,0,0-8.8.64-10.417,6.308S267.656,124.457,267.656,124.457Z" transform="translate(-237.498 -87.06)" fill="#fcaa98"/>
        <path id="Path_8414" data-name="Path 8414" d="M266.669,98c-3.284,2.783-2.607,7.931-2.635,11.79a.353.353,0,0,1-.464.352c-3.711.51-8.7,2.31-10.464,5.8a.093.093,0,0,1-.167-.074c1.382-4,6.178-6.16,10.2-6.494,0-3.961-.473-9.184,3.479-11.429C266.669,97.921,266.7,98,266.669,98Z" transform="translate(-237.485 -87.092)" fill="#263238"/>
        <path id="Path_8415" data-name="Path 8415" d="M268.191,123.43s4.842,22.959,6.892,23.989c3.4,1.716,23.071,4.777,30.065,6.234s11.781,5.946-5.232,11.994c-16.438,5.844-34.323,9.174-43.154,5.844C246.039,167.438,236.28,142.8,236.28,142.8Z" transform="translate(-236.28 -88.936)" fill="#ef0f50"/>
        <path id="Path_8416" data-name="Path 8416" d="M240.675,148.661c12.672-8.4,26.429-15.77,28.8-17.152.121-.065.186.148.074.213-2.236,1.317-17.792,11.28-28.8,17.171C240.619,148.986,240.554,148.763,240.675,148.661Z" transform="translate(-236.593 -89.52)" fill="#263238"/>
        <path id="Path_8417" data-name="Path 8417" d="M312.649,161.64c-.853,1.9-4.137,4.193-11.4,6.772-16.438,5.844-34.323,9.174-43.154,5.844a13.664,13.664,0,0,1-3.414-1.967Z" transform="translate(-237.611 -91.701)" opacity="0.1"/>
        <path id="Path_8418" data-name="Path 8418" d="M287.16,205.508l46.123,1.8s-2.124-32.134-9.035-45.381c-3.145-6.03-7.718-6.494-12.282-4.481-1.141.51-16.7,11.874-19.054,16.7-2.106,4.239.148,10.2.148,10.2Z" transform="translate(-239.961 -91.32)" fill="#ebebeb"/>
        <path id="Path_8419" data-name="Path 8419" d="M307.905,157.988s-6.725,7.746-7.208,10.835a34.319,34.319,0,0,0,0,7.421,125.134,125.134,0,0,0,11.447-5.195c3.8-2.161,6.4-13.21,6.4-13.21s5.464,5.167,7.783,15.6c1.8,8.052,5.863,32.718,6.169,33.442s6.494,15.937,5.7,31.466c0,0,4.49,19.128,6.642,21.28s5.761-.519,5.761-.519-12.4,42.941-35.891,50.093c-20.844,6.382-65.344-9.453-64.416-18.247s15.306-48.525,32.857-85.344l6.9-20.956s-3.015-6.141.148-10.918S305.438,159.092,307.905,157.988Z" transform="translate(-237.292 -91.426)" fill="#ef0f50"/>
        <path id="Path_8420" data-name="Path 8420" d="M282.583,274.188c-1.345,3.878-2.625,7.764-4.054,11.614-.724,1.939-1.373,3.915-2.013,5.891a25.045,25.045,0,0,0-1.327,6.225.07.07,0,0,1-.139,0,31.258,31.258,0,0,1,.928-6.93,72.23,72.23,0,0,1,3.423-12.124c.779-1.939,1.661-3.85,2.588-5.733s1.855-3.794,2.866-5.566c.074-.13.315-.056.26.1C284.28,269.819,283.352,271.971,282.583,274.188Z" transform="translate(-239.085 -99.36)" opacity="0.1"/>
        <path id="Path_8421" data-name="Path 8421" d="M321.1,282.228c0-2.783,0-5.492.176-8.238.167-2.421.362-4.842.7-7.245s.853-4.833,1.41-7.226c1.1-4.777,2.375-9.536,3.766-14.239-.77,2.644-1.475,5.306-2.032,8.006-.928,4.768-1.466,9.583-2.171,14.388s-1.364,9.685-1.735,14.536A.058.058,0,1,1,321.1,282.228Z" transform="translate(-242.417 -97.752)" opacity="0.1"/>
        <path id="Path_8422" data-name="Path 8422" d="M332.067,310.142c-.315.306-.631.594-.928.881-.557-.4-1.1-.807-1.642-1.215-4.74-3.618-9.917-7.774-12-13.553a24.7,24.7,0,0,1-1.067-8.674,75.135,75.135,0,0,1,.854-9.007c0-.111.2-.093.186,0a60.734,60.734,0,0,0-.371,9.889,20.677,20.677,0,0,0,2.356,8.2,29.2,29.2,0,0,0,5.195,6.707C326.974,305.782,329.507,307.971,332.067,310.142Z" transform="translate(-242.076 -100.156)" opacity="0.1"/>
        <path id="Path_8423" data-name="Path 8423" d="M302.176,267.514c-1.466,4.063-2.866,8.145-4.045,12.3q-.872,3.08-1.558,6.187c-.455,2.1-.789,4.212-1.169,6.317a47.7,47.7,0,0,0-.751,6.289,31.765,31.765,0,0,0,0,3.256c.056,1.085-.065,2.106,0,3.163a.116.116,0,0,1-.232,0c-.1-.668-.278-1.308-.408-1.957a15.707,15.707,0,0,1-.176-1.735c-.1-1.2-.139-2.393-.158-3.581a57.179,57.179,0,0,1,.26-7.134,72.965,72.965,0,0,1,2.783-12.644c1.225-4.137,2.662-8.21,4.137-12.263,1.54-4.221,3.033-8.46,4.889-12.551s3.655-8.432,5.306-12.718c0-.1.195-.065.158,0-.844,2.393-1.6,4.824-2.421,7.217s-1.438,4.861-2.217,7.263c-.686,2.134-1.373,4.239-2.143,6.345S302.927,265.445,302.176,267.514Z" transform="translate(-240.431 -97.398)" opacity="0.1"/>
        <path id="Path_8424" data-name="Path 8424" d="M283.616,317.624l-1.429-.362a34.237,34.237,0,0,1-2.078-9.351,30.2,30.2,0,0,1,.176-3.664c.074-1.141.213-2.282.38-3.414A30.613,30.613,0,0,1,282.522,294c0-.083.167,0,.139.056a23.6,23.6,0,0,0-1.531,7.421,22.261,22.261,0,0,0,.093,3.34c.13,1.113.38,2.217.519,3.34a59.749,59.749,0,0,0,1.178,6.651C283.125,315.788,283.366,316.715,283.616,317.624Z" transform="translate(-239.451 -101.275)" opacity="0.1"/>
        <path id="Path_8425" data-name="Path 8425" d="M324.54,314.16a27.308,27.308,0,0,1-6.187,2.783,39.166,39.166,0,0,1-11.132,1.466c-.705-.974-1.364-1.957-1.994-2.978a29.685,29.685,0,0,1-4.369-11.679c-.6-4.824.566-9.7,1.586-14.388,1.048-4.852,8.516-25.919,9.74-24.351,1.484,1.911-2.737,24.23-3,26.9a11.763,11.763,0,0,0,1.262,7.236,34.257,34.257,0,0,0,4.731,5.807q2.672,2.894,5.51,5.631C321.933,311.823,323.241,312.982,324.54,314.16Z" transform="translate(-240.94 -99.174)" opacity="0.1"/>
        <path id="Path_8426" data-name="Path 8426" d="M353.147,268.114a30.865,30.865,0,0,1-1.642,2.653c-1.5,2.273-3.024,4.536-4.536,6.79s-3.108,4.573-4.638,6.865c-1.271,1.855-2.421,3.831-4.378,5.084a.408.408,0,0,1-.566-.538c1.169-2.366,2.514-4.638,3.776-6.967a126.985,126.985,0,0,0,6-11.735,53.112,53.112,0,0,0,2.189-6.327.916.916,0,0,1,.074-.26,12.061,12.061,0,0,0,1.716,3.59,2.876,2.876,0,0,0,2,.844Z" transform="translate(-243.592 -99.084)" opacity="0.1"/>
        <path id="Path_8427" data-name="Path 8427" d="M331.982,207.67c-2.876,1.132-5.742,2.291-8.7,3.191a65.236,65.236,0,0,1-8.831,1.957,33.822,33.822,0,0,1-15.705-.928,22.412,22.412,0,0,1-7.783-4.712c-.065-.056-.158,0-.093.111a21.466,21.466,0,0,0,13.915,7.366c5.956.779,11.744-.482,17.264-2.672,3.349-1.327,6.67-2.783,9.972-4.193C332.084,207.763,332.056,207.642,331.982,207.67Z" transform="translate(-240.228 -94.994)" opacity="0.1"/>
        <path id="Path_8428" data-name="Path 8428" d="M309.467,187.651a40.216,40.216,0,0,0-5.946-.742h-4.453a6.624,6.624,0,0,1-1.54-.148s-.065.056,0,.065a10.976,10.976,0,0,0,1.41.39,10.5,10.5,0,0,0,1.419.139c1,.046,2.013.046,3.024.083,2.022.065,4.054.139,6.076.353C309.531,187.818,309.559,187.669,309.467,187.651Z" transform="translate(-240.709 -93.518)" fill="#263238"/>
        <path id="Path_8429" data-name="Path 8429" d="M314.2,190.8a43.357,43.357,0,0,0-4.638-1.623c-.789-.223-1.6-.4-2.4-.557l-1.16-.2c-.427-.065-.872-.083-1.289-.158-.046,0-.065.065,0,.074.408.083.789.232,1.187.334l1.187.315c.8.213,1.586.436,2.384.64,1.6.417,3.173.835,4.75,1.308a.066.066,0,1,0-.019-.13Z" transform="translate(-241.228 -93.627)" fill="#263238"/>
        <path id="Path_8430" data-name="Path 8430" d="M325.507,169.195c10.64,15.213,27.124,37.839,36.893,37.635,8.84-.176,22.941-7.8,38.3-15.974,3.061-1.633-10.826-24.7-13.915-22.644-6.058,4.045-18.98,14.842-23.191,15.547-1.79.288-21.893-14.518-33.219-21.633C320.47,155.874,323.439,166.236,325.507,169.195Z" transform="translate(-242.585 -91.594)" fill="#fcaa98"/>
        <path id="Path_8431" data-name="Path 8431" d="M418.878,183.755c-4.3,3.544-17.931,9.1-21.085,8.943s-10.278-19.7-8.544-22.44,17.115-13.544,22.8-13.618S423.322,180.091,418.878,183.755Z" transform="translate(-247.328 -91.339)" fill="#fcaa98"/>
        <path id="Path_8432" data-name="Path 8432" d="M398.4,140.489s7.189-7.18,16.243-1.623c0,0,.39,27,.64,28.637s7.616,31.8,7.616,31.8-6.818,4.814-17.375.881c0,0,1.707-30.946,1.531-31.855S398.4,140.489,398.4,140.489Z" transform="translate(-248.01 -89.901)" fill="#bfdde6"/>
        <path id="Path_8433" data-name="Path 8433" d="M423.455,204.006s-9.889-5.566-17.375.881C406.08,204.887,413.835,209.4,423.455,204.006Z" transform="translate(-248.565 -94.605)" fill="#89c5d8"/>
        <path id="Path_8434" data-name="Path 8434" d="M415.941,169.794c.213-.167,0-.26-.167-.3a3.8,3.8,0,0,0-.566-.1c-.39-.046-.779-.065-1.169-.074a21.721,21.721,0,0,0-2.338.065c-.779.056-1.558.148-2.328.269a7.215,7.215,0,0,0-1.113.269c-.325.111-.8.278-.547.7a.464.464,0,0,1-.213-.26.51.51,0,0,1,.074-.353,1.6,1.6,0,0,1,.473-.492,4.8,4.8,0,0,1,1.141-.557,10.1,10.1,0,0,1,2.44-.5,9.277,9.277,0,0,1,2.486.148,6,6,0,0,1,1.206.353,2.784,2.784,0,0,1,.566.306.659.659,0,0,1,.241.26.185.185,0,0,1,0,.195.371.371,0,0,1-.186.074Z" transform="translate(-248.667 -92.192)" fill="#ef0f50"/>
        <path id="Path_8435" data-name="Path 8435" d="M416.025,170.263c.2-.186,0-.25-.195-.288a3.9,3.9,0,0,0-.575-.056h-1.187a15.121,15.121,0,0,0-2.338.232c-.77.121-1.568.26-2.338.436a7.331,7.331,0,0,0-1.113.325,1.633,1.633,0,0,0-.492.25.288.288,0,0,0-.056.455.4.4,0,0,1-.223-.25.538.538,0,0,1,.074-.362,1.855,1.855,0,0,1,.464-.492,5.092,5.092,0,0,1,1.122-.612,11.134,11.134,0,0,1,2.412-.668,9.13,9.13,0,0,1,2.514,0,6.5,6.5,0,0,1,1.243.269,3.084,3.084,0,0,1,.594.269.705.705,0,0,1,.26.241.2.2,0,0,1-.167.25Z" transform="translate(-248.668 -92.244)" fill="#ef0f50"/>
        <path id="Path_8436" data-name="Path 8436" d="M416.1,170.672a.26.26,0,0,0,.084-.121h0a1.446,1.446,0,0,0-.278,0l-.575.111-1.16.241c-.77.167-1.549.3-2.319.436s-1.558.241-2.338.334c-.39.056-.779.1-1.16.176a2.54,2.54,0,0,0-.538.139c-.167.056-.269.186-.111.38a.334.334,0,0,1-.2-.26.436.436,0,0,1,.176-.325,2.441,2.441,0,0,1,.529-.362,7.948,7.948,0,0,1,1.15-.445,19.128,19.128,0,0,1,4.731-.8H415.3a4.639,4.639,0,0,1,.612.083,1.167,1.167,0,0,1,.315.111.3.3,0,0,1,.083.074.1.1,0,0,1,0,.121A.51.51,0,0,1,416.1,170.672Z" transform="translate(-248.668 -92.319)" fill="#ef0f50"/>
        <path id="Path_8437" data-name="Path 8437" d="M404.262,158.238c-.974,2.783,2.866,2.347,2.866,2.347s-5.371,1.957-5.269,5.223,4.722,2.44,5.056,2.393c-.288.111-5.176,2.05-4.74,5.306.464,3.4,4.981,1.855,5.269,1.8-.232.186-3.312,2.681-2.412,5.084,1.54,4.137,9.592-2.022,13.108-1.4,0,0,1.326,4.592,1.354,4.768,0,0,6.076-4.212,6.651-9.007a3.08,3.08,0,0,0-1.994-3.3s2.709-1.558,2.44-4.137c-.139-1.336-2.338-2.263-2.338-2.263a3.868,3.868,0,0,0,1.735-3.627c-.3-1.855-2.5-2.5-2.5-2.5s1.438-2.226.529-3.989C422.157,151.355,406.368,152.283,404.262,158.238Z" transform="translate(-248.26 -91.064)" fill="#fcaa98"/>
        <path id="Path_8438" data-name="Path 8438" d="M423.508,159.167v-.083A27.4,27.4,0,0,0,407.293,161c-.158.074-.1.362.093.315a56.3,56.3,0,0,1,16.122-2.152Z" transform="translate(-248.646 -91.482)" fill="#263238"/>
        <path id="Path_8439" data-name="Path 8439" d="M424.618,165.9c.065,0,.065-.1,0-.111a25.7,25.7,0,0,0-17.56,3.191c-.176.111-.232.4,0,.278C410.769,167.311,419.544,165.762,424.618,165.9Z" transform="translate(-248.625 -91.973)" fill="#263238"/>
        <path id="Path_8440" data-name="Path 8440" d="M407.559,177.083c5.195-3.006,10.826-4.045,16.772-4.276.074,0,.065-.111,0-.121-2.941-.677-6.707-.139-9.61.538a15.77,15.77,0,0,0-7.263,3.711C407.374,176.981,407.448,177.148,407.559,177.083Z" transform="translate(-248.662 -92.478)" fill="#263238"/>
        <path id="Path_8441" data-name="Path 8441" d="M407.1,161.19a17.045,17.045,0,0,0-2.839,1.679,5.955,5.955,0,0,0-2.078,2.365,1.977,1.977,0,0,0-.056,1.419,2.987,2.987,0,0,0,.826,1.215,3.525,3.525,0,0,0,2.783.6l2.384-.39-2.106,1.2a10.1,10.1,0,0,0-2.514,1.994,3.534,3.534,0,0,0-1.048,2.7,2.013,2.013,0,0,0,1.716,1.855,6.076,6.076,0,0,0,3.043-.371l2.7-.928-2.226,1.781a9.279,9.279,0,0,0-1.651,1.707,3.859,3.859,0,0,0-.835,2.05,1.855,1.855,0,0,0,.928,1.679,3.934,3.934,0,0,0,2.245.176,31.2,31.2,0,0,0,4.8-1.308c.8-.26,1.6-.51,2.412-.733a5.881,5.881,0,0,1,2.5-.269,6.428,6.428,0,0,0-2.43.492c-.789.278-1.568.594-2.347.928a26.736,26.736,0,0,1-4.824,1.6,4.741,4.741,0,0,1-2.7-.13,2.607,2.607,0,0,1-1.466-2.43,4.638,4.638,0,0,1,.974-2.56,10.149,10.149,0,0,1,1.8-1.93l.473.816a6.967,6.967,0,0,1-3.581.482,2.941,2.941,0,0,1-1.744-.928,3.321,3.321,0,0,1-.751-1.809,4.462,4.462,0,0,1,1.327-3.414,10.7,10.7,0,0,1,2.783-2.152l.278.807a4.221,4.221,0,0,1-3.432-.928,3.618,3.618,0,0,1-.928-1.549,2.524,2.524,0,0,1,.139-1.809,6.169,6.169,0,0,1,2.4-2.4,14.191,14.191,0,0,1,3.043-1.5Z" transform="translate(-248.227 -91.668)" fill="#263238"/>
        <path id="Path_8442" data-name="Path 8442" d="M391.74,167.7s10.853-20.983,16.976-12.727c1.855,2.458,6.364,14.7,3.915,15.668-3.154,1.234-6-3.525-7.319-6.79,0,0-2.681,7.653-8.571,7.375A5.863,5.863,0,0,1,391.74,167.7Z" transform="translate(-247.528 -91.079)" fill="#fcaa98"/>
        <path id="Path_8443" data-name="Path 8443" d="M408.651,154.42a12.607,12.607,0,0,1,2.069,2.95,26.824,26.824,0,0,1,1.475,3.293,41.335,41.335,0,0,1,2.032,6.957,6.881,6.881,0,0,1,.1,1.92,2.644,2.644,0,0,1-.343,1.039,1.755,1.755,0,0,1-.39.464,1.773,1.773,0,0,1-.519.306,3.043,3.043,0,0,1-2.106,0,5.716,5.716,0,0,1-1.688-1.011,11,11,0,0,1-2.3-2.931,23.235,23.235,0,0,1-1.558-3.3h.779a14,14,0,0,1-1.252,2.468,12.749,12.749,0,0,1-1.679,2.18,9.22,9.22,0,0,1-2.171,1.67,6.949,6.949,0,0,1-2.57.853,7.9,7.9,0,0,0,2.412-1.095,9.324,9.324,0,0,0,1.939-1.781,13.393,13.393,0,0,0,1.484-2.171,14.211,14.211,0,0,0,1.048-2.384l.325-1.02.454.993a26.745,26.745,0,0,0,1.6,3.126,10.8,10.8,0,0,0,2.143,2.662,2.969,2.969,0,0,0,2.783.844c.779-.241.742-1.549.584-2.662a35.2,35.2,0,0,0-.733-3.451c-.288-1.16-.594-2.3-.928-3.432A22.737,22.737,0,0,0,408.651,154.42Z" transform="translate(-248.019 -91.179)" fill="#263238"/>
        <path id="Path_8444" data-name="Path 8444" d="M383.685,170.183s-18.46,12.792-20.677,12.217c-3.711-.928-27.431-18-33.664-21.512s-8.349,1.364-4.722,7.486c9.527,16.085,25.176,41.29,38.915,43.933,7.421,1.419,33.4-8.349,33.4-8.349Z" transform="translate(-242.543 -91.561)" fill="#ef0f50"/>
        <path id="Path_8445" data-name="Path 8445" d="M335.076,185.311c-.306-.408-.492-.928-.761-1.354l-.863-1.4q-.863-1.336-1.7-2.7c-1.122-1.8-2.347-3.534-3.525-5.3,1.03,1.855,2.032,3.711,3.191,5.566a.773.773,0,0,1,.074.111l-.742-.733-1.531-1.531s-.083,0-.056.056a21.245,21.245,0,0,0,1.447,1.586c.269.26.529.519.807.761l.38.334,1.308,2c.3.464.612.928.928,1.364s.724.835.993,1.3C335.02,185.441,335.132,185.376,335.076,185.311Z" transform="translate(-242.933 -92.636)" fill="#263238"/>
        <path id="Path_8446" data-name="Path 8446" d="M382.981,176.992c5.789,13.117,10.362,26.995,11.308,29.434,0,.111-.167.139-.213,0-.872-2.282-7.644-18.312-11.336-29.434C382.731,176.872,382.981,176.853,382.981,176.992Z" transform="translate(-246.877 -92.805)" fill="#263238"/>
        <path id="Path_8447" data-name="Path 8447" d="M312.517,154.36c6.308-1.382,17.282,3.191,18.089,7.95.677,4.072.789,34.666,1.688,42.672s25.4,41.865,25.4,41.865l-11.354-.742-1.967,10.39s-21.512-29.62-25.742-43.488,3.423-53.1,2.263-55.084-5.946-1.716-8.117-1.317-5.612,4.638-7.356,8.859-8.534,31.429-8.636,41.419,13.321,47.83,13.321,47.83l-9.852-4.425-6.9,9.5s-10.316-36.874-10.742-53.182c-.269-10.371,7.421-29.035,15.872-41.484C303.324,158.034,308.723,155.186,312.517,154.36Z" transform="translate(-239.631 -91.156)" fill="#261b5c"/>
        <path id="Path_8448" data-name="Path 8448" d="M322.539,157.711c-.417.789-5.909,5.186-9.712,3.98-1.243-.4.622-7.254.622-7.254V153.9l.306-7.533,9.768-3.126,1.4-.39s-.223,2.059-.52,4.638a1.047,1.047,0,0,1-.046.371,1.207,1.207,0,0,0,0,.408,9.638,9.638,0,0,1-.13,1.16c-.046.38-.074.584-.13.928s-.083.6-.13.928a48.461,48.461,0,0,1-1.429,6.429Z" transform="translate(-241.787 -90.342)" fill="#fcaa98"/>
        <path id="Path_8449" data-name="Path 8449" d="M324.505,147.46A15.121,15.121,0,0,1,313.55,153.9l.306-7.533,9.768-3.126,1.4-.39S324.8,144.909,324.505,147.46Z" transform="translate(-241.871 -90.342)" fill="#263238"/>
        <path id="Path_8450" data-name="Path 8450" d="M306.24,128.666c-7.032,11.2-1.122,16.7,1.3,18.191,2.189,1.373,9.833,5.779,17.987-4.638s5.167-17.226.325-20.631S313.281,117.469,306.24,128.666Z" transform="translate(-241.101 -88.643)" fill="#fcaa98"/>
        <path id="Path_8451" data-name="Path 8451" d="M309.489,128.3c.288.13.575.195.872.3a1.494,1.494,0,0,0,.928.139.473.473,0,0,0,.288-.5,1.169,1.169,0,0,0-.844-.826,1.716,1.716,0,0,0-1.234,0,.5.5,0,0,0-.009.891Z" transform="translate(-241.557 -89.216)" fill="#263238"/>
        <path id="Path_8452" data-name="Path 8452" d="M317.823,133.221a8.535,8.535,0,0,1-.668-.622,1.484,1.484,0,0,1-.566-.761.455.455,0,0,1,.3-.492,1.16,1.16,0,0,1,1.122.352,1.716,1.716,0,0,1,.612,1.076.5.5,0,0,1-.8.445Z" transform="translate(-242.09 -89.507)" fill="#263238"/>
        <path id="Path_8453" data-name="Path 8453" d="M314.118,135.21v.111c-.5.742-.928,1.679-.427,2.366v.046C312.912,137.084,313.524,135.841,314.118,135.21Z" transform="translate(-241.854 -89.789)" fill="#263238"/>
        <path id="Path_8454" data-name="Path 8454" d="M315.319,134.813c1.28.677-.167,3.191-1.364,2.56S314.243,134.238,315.319,134.813Z" transform="translate(-241.868 -89.754)" fill="#263238"/>
        <path id="Path_8455" data-name="Path 8455" d="M315.882,135.266c.139.269.2.64.455.826a1.085,1.085,0,0,0,1.02-.065s.046,0,0,.056a1.067,1.067,0,0,1-1.3.649,1.085,1.085,0,0,1-.445-1.382C315.668,135.247,315.826,135.155,315.882,135.266Z" transform="translate(-242.013 -89.789)" fill="#263238"/>
        <path id="Path_8456" data-name="Path 8456" d="M309.456,132.34h-.093c-.417.8-1.039,1.642-1.855,1.493h0C308.39,134.288,309.187,133.166,309.456,132.34Z" transform="translate(-241.432 -89.581)" fill="#263238"/>
        <path id="Path_8457" data-name="Path 8457" d="M309.2,130.987c-1.206-.807-2.737,1.66-1.623,2.412S310.214,131.693,309.2,130.987Z" transform="translate(-241.411 -89.472)" fill="#263238"/>
        <path id="Path_8458" data-name="Path 8458" d="M308.58,130.788c-.278,0-.622.13-.863,0s-.315-.538-.334-.928h-.056a1.122,1.122,0,0,0-.056,1.429c.362.334.928.121,1.327-.278C308.673,130.964,308.691,130.788,308.58,130.788Z" transform="translate(-241.4 -89.402)" fill="#263238"/>
        <path id="Path_8459" data-name="Path 8459" d="M310.165,142.129a1.373,1.373,0,0,1-.928.121,2.393,2.393,0,0,1-.751-.649h-.056a1.206,1.206,0,0,0,.788.928.928.928,0,0,0,.993-.38S310.211,142.119,310.165,142.129Z" transform="translate(-241.5 -90.251)" fill="#263238"/>
        <path id="Path_8460" data-name="Path 8460" d="M307.88,138.89a3.628,3.628,0,0,0,.575,1.772,1.633,1.633,0,0,0,.788.612c.714.25,1.095-.288,1.308-.835a3.82,3.82,0,0,0,.223-.928A4.74,4.74,0,0,1,307.88,138.89Z" transform="translate(-241.46 -90.055)" fill="#263238"/>
        <path id="Path_8461" data-name="Path 8461" d="M308.5,140.762a1.633,1.633,0,0,0,.788.612c.714.25,1.095-.288,1.308-.835A1.688,1.688,0,0,0,308.5,140.762Z" transform="translate(-241.505 -90.155)" fill="#ff9bbc"/>
        <path id="Path_8462" data-name="Path 8462" d="M308.488,136.5s-.844,1.067-1.169,1.614c0,.046.084.148.269.269h0a3.033,3.033,0,0,0,3.089.519.065.065,0,0,0,0-.121,4.527,4.527,0,0,1-2.783-.724c.046-.176,1.5-1.772,1.419-1.855a5.566,5.566,0,0,0-1.4-.445c1.7-2.263,3.711-4.239,5.4-6.494.056-.083-.056-.176-.121-.121a45.841,45.841,0,0,0-6.113,6.772C306.846,136.217,308.21,136.431,308.488,136.5Z" transform="translate(-241.4 -89.349)" fill="#263238"/>
        <path id="Path_8463" data-name="Path 8463" d="M325.506,142.452c-1.243-.807-2.6-6.243.807-12.523,0,0-2.672,5.853-2.709,6.911s-.751-3.052,1.92-8.154a23.443,23.443,0,0,1-6.651-.232c-2.783-.677-4.184-1.512-4.258-1.781s4.035.6,5.566,0c0,0-7.959-.622-10.983-2.041-.353-.158,3.089-6.095,9.23-6.494s11.531,5.566,12.4,8.507c0,0,1.716,1.243,2.05,5.965C333.261,137.721,326.851,143.315,325.506,142.452Z" transform="translate(-241.554 -88.552)" fill="#263238"/>
        <path id="Path_8464" data-name="Path 8464" d="M324.345,147.963a2.83,2.83,0,0,1-.612-.139,2.135,2.135,0,0,1-.566-.269,1.93,1.93,0,0,1-.566-.566,2.252,2.252,0,0,1-.26-.575,2.561,2.561,0,0,1-.111-.928l2.263-2.783s4.453-2.347,5.649-.575S326.654,148.242,324.345,147.963Z" transform="translate(-242.498 -90.241)" fill="#fcaa98"/>
        <path id="Path_8465" data-name="Path 8465" d="M328.862,143.475v.056a5.649,5.649,0,0,0-4.212,1.809,1.243,1.243,0,0,1,1.8.547s-.046.083-.083.056a1.373,1.373,0,0,0-1.558-.269,6.77,6.77,0,0,0-1.206.761c-.13.093-.315-.093-.195-.2h0C324.279,144.44,326.895,142.686,328.862,143.475Z" transform="translate(-242.581 -90.373)" fill="#263238"/>
        <path id="Path_8466" data-name="Path 8466" d="M324.525,147.772a.612.612,0,1,1,.133-.451A.612.612,0,0,1,324.525,147.772Z" transform="translate(-242.586 -90.626)" fill="#fff"/>
        <path id="Path_8467" data-name="Path 8467" d="M326.213,147.527a.427.427,0,0,1-.6.065.436.436,0,0,1,.538-.677.427.427,0,0,1,.065.612Z" transform="translate(-242.734 -90.631)" fill="#fff"/>
        <path id="Path_8473" data-name="Path 8473" d="M325.417,123.955l-19.4-19.045,27.941,4.184,17.124,21.614Z" transform="translate(-241.326 -87.597)" fill="#ef0f50"/>
        <g id="Group_3969" data-name="Group 3969">
          <path id="Path_8468" data-name="Path 8468" d="M354.476,140.978a6.735,6.735,0,0,1-2.171-.353,4.833,4.833,0,0,1-3.256-3.071c-.455-1.521.482-3.312,1.466-5.2,1.141-2.2,2.328-4.462,1.271-6.262-2-3.4-9.852-6.373-9.926-6.41l.241-.649c.334.13,8.163,3.089,10.278,6.707,1.252,2.124-.074,4.638-1.252,6.939-.928,1.763-1.781,3.432-1.41,4.638a4.147,4.147,0,0,0,2.783,2.607,5.139,5.139,0,0,0,4.49-.4l.408.566A5.009,5.009,0,0,1,354.476,140.978Z" transform="translate(-243.919 -88.618)" fill="#263238"/>
          <path id="Path_8469" data-name="Path 8469" d="M357.82,141.028a5.093,5.093,0,0,1,.64-2.384,17.959,17.959,0,0,1,2.857-3.024l.455.529a16.327,16.327,0,0,0-2.7,2.839,4.453,4.453,0,0,0-.557,2.032Z" transform="translate(-245.073 -89.818)" fill="#ef0f50"/>
          <path id="Path_8470" data-name="Path 8470" d="M360.345,142.007a15.619,15.619,0,0,1-1.855-.148l.1-.686a11.457,11.457,0,0,0,2.273.121,12.561,12.561,0,0,0,3.321-2.013l.427.547c-.269.2-2.662,2.05-3.711,2.152q-.277.027-.557.028Z" transform="translate(-245.122 -90.083)" fill="#ef0f50"/>
          <path id="Path_8471" data-name="Path 8471" d="M358.6,141.317l-.594-.362A18.157,18.157,0,0,1,360,138.173l2.783-2.4.455.529s-2.208,1.855-2.783,2.4a17.681,17.681,0,0,0-1.846,2.616Z" transform="translate(-245.087 -89.829)" fill="#ef0f50"/>
          <path id="Path_8472" data-name="Path 8472" d="M358.55,141.693l-.26-.649a20.408,20.408,0,0,0,3.265-1.577c.575-.5,2.347-1.67,2.421-1.716l.39.575s-1.809,1.2-2.347,1.67a22.135,22.135,0,0,1-3.469,1.7Z" transform="translate(-245.107 -89.973)" fill="#ef0f50"/>
          <path id="Path_8474" data-name="Path 8474" d="M325.417,123.955l-19.4-19.045,27.941,4.184,17.124,21.614Z" transform="translate(-241.326 -87.597)" opacity="0.1"/>
          <path id="Path_8475" data-name="Path 8475" d="M313,119.8l3.163-7.319s8.813.8,14.221,3.915,10.445,9.555,10.445,9.555l-4.7,7.143s-6.967-6.03-11.392-8.46A89.659,89.659,0,0,0,313,119.8Z" transform="translate(-241.831 -88.144)" fill="#ef0f50"/>
        </g>
      </g>
      <g id="freepik--character-1--inject-47" transform="translate(52.547 80.667)">
        <path id="Path_8476" data-name="Path 8476" d="M150.26,395.3v37.236c0,7.115.056,13.358.408,16.577a.121.121,0,0,0,0,.056,4.982,4.982,0,0,0,.51,2.2v.046c2.106,1.447,58.961,3.4,60.965,2.783s.455-6.364-1.688-8.2-23.59-12.319-23.59-12.319l-.362-37.189Z" transform="translate(-61.704 -100.771)" fill="#de907f"/>
        <path id="Path_8477" data-name="Path 8477" d="M150.27,427.21v7.635c0,7.115.056,13.358.408,16.577a.121.121,0,0,0,0,.056,9.453,9.453,0,0,0,.51,2.2v.046c2.106,1.447,58.961,3.4,60.965,2.783s.455-6.364-1.688-8.2-23.59-12.319-23.59-12.319l.1-7.746Z" transform="translate(-61.705 -103.08)" fill="#fff"/>
        <path id="Path_8478" data-name="Path 8478" d="M212.22,457.086c-2.013.6-58.859-1.345-60.984-2.783-.807-.538-1.011-8.84-.928-18.878v-.315l36.689.853v.621s21.364,10.482,23.525,12.338S214.224,456.492,212.22,457.086Z" transform="translate(-61.707 -103.652)" fill="#a6a6a6"/>
        <path id="Path_8479" data-name="Path 8479" d="M211.921,456.261c-9.573-.566-48.238-1.93-57.755-1.763-.074,0-.074.056,0,.065,9.481.761,48.163,1.855,57.755,1.855C212.125,456.419,212.125,456.271,211.921,456.261Z" transform="translate(-61.983 -105.054)" fill="#263238"/>
        <path id="Path_8480" data-name="Path 8480" d="M192.221,436.89c-3.711-.835-8.349-.417-11.354,2.171-.111.1,0,.269.158.232a52.872,52.872,0,0,1,11.132-1.93.241.241,0,0,0,.065-.473Z" transform="translate(-63.915 -103.752)" fill="#263238"/>
        <path id="Path_8481" data-name="Path 8481" d="M195.111,438.76c-3.711-.835-8.349-.417-11.345,2.171-.121.1,0,.269.148.232a53.034,53.034,0,0,1,11.132-1.929.241.241,0,0,0,.065-.473Z" transform="translate(-64.125 -103.888)" fill="#263238"/>
        <path id="Path_8482" data-name="Path 8482" d="M197.971,440.63c-3.711-.835-8.349-.417-11.354,2.171a.141.141,0,0,0,.148.232A53.04,53.04,0,0,1,197.9,441.1a.241.241,0,0,0,.074-.473Z" transform="translate(-64.331 -104.023)" fill="#263238"/>
        <path id="Path_8483" data-name="Path 8483" d="M148.19,356.023l.009.417.826,65.139,39.8-.8L180.649,222.2H147.04Z" transform="translate(-61.471 -88.248)" fill="#263238"/>
        <path id="Path_8484" data-name="Path 8484" d="M187.44,429.111c-6.215-.056-4.434-.13-10.649-.111-3.033,0-23.024.074-25.854.584a.065.065,0,0,0,0,.121c2.848.436,22.82,0,25.863-.046,6.215-.13,4.425-.167,10.64-.371a.093.093,0,0,0,0-.176Z" transform="translate(-61.75 -103.21)" fill="#37474f"/>
        <path id="Path_8485" data-name="Path 8485" d="M156.24,392.465q-.13-8.933-.288-17.857-.343-17.848-.668-35.705-.649-35.52-1.141-71.049c-.2-13.358-.195-26.726-.538-40.074h-.056c-.223,11.9-.083,23.813-.065,35.715s.065,23.813.186,35.714c.232,23.692.557,47.375,1.122,71.058.158,6.679.315,13.358.547,20.028s.38,13.367.844,20.037a.083.083,0,0,0,.167,0C156.463,404.376,156.315,398.412,156.24,392.465Z" transform="translate(-61.933 -88.651)" fill="#37474f"/>
        <path id="Path_8486" data-name="Path 8486" d="M147.03,222.6l.881,101.4,26.948-101.8h-27.82Z" transform="translate(-61.471 -88.248)" fill="#37474f"/>
        <path id="Path_8487" data-name="Path 8487" d="M81.371,375.24,62.16,406.465c-3.117,6.392-5.733,12.059-6.818,15.111a.13.13,0,0,0,0,.056,5.018,5.018,0,0,0-.492,2.208v.056c1.271,2.217,51.661,28.627,53.729,28.952s3.173-5.566,2.032-8.117-15.918-21.336-15.918-21.336l18.878-31.345Z" transform="translate(-54.801 -99.32)" fill="#de907f"/>
        <path id="Path_8488" data-name="Path 8488" d="M54.84,425.845a.121.121,0,0,0,0,.056c1.271,2.217,51.661,28.627,53.729,28.961s3.173-5.566,2.041-8.126S94.692,425.4,94.692,425.4l3.367-5.566c-8.238-4.388-23.191-12.059-32.468-16.874l-3.4,5.566c-3.117,6.4-5.742,12.059-6.818,15.111a.13.13,0,0,0,0,.056,4.814,4.814,0,0,0-.529,2.152Z" transform="translate(-54.8 -101.326)" fill="#fff"/>
        <path id="Path_8489" data-name="Path 8489" d="M108.576,455.261c-2.069-.325-52.449-26.735-53.729-28.952-.5-.844,2.922-8.4,7.31-17.431l.139-.278,32.7,16.7-.306.547s14.768,18.729,15.918,21.336S110.644,455.6,108.576,455.261Z" transform="translate(-54.797 -101.734)" fill="#a6a6a6"/>
        <path id="Path_8490" data-name="Path 8490" d="M109.256,454.4c-8.349-4.638-42.672-22.662-51.28-26.633-.074,0-.093,0,0,.046,8.21,4.805,42.607,22.533,51.234,26.726C109.367,454.625,109.432,454.5,109.256,454.4Z" transform="translate(-55.023 -103.121)" fill="#263238"/>
        <path id="Path_8491" data-name="Path 8491" d="M99.815,428.554c-3.015-2.375-7.366-4.007-11.132-2.968-.148.046-.093.25,0,.278a52.58,52.58,0,0,1,10.9,3.108.241.241,0,0,0,.232-.417Z" transform="translate(-57.242 -102.94)" fill="#263238"/>
        <path id="Path_8492" data-name="Path 8492" d="M101.595,431.484c-3.015-2.375-7.366-4.007-11.132-2.959-.148,0-.093.241,0,.269a52.579,52.579,0,0,1,10.9,3.108.241.241,0,0,0,.232-.417Z" transform="translate(-57.371 -103.152)" fill="#263238"/>
        <path id="Path_8493" data-name="Path 8493" d="M103.375,434.414c-3.015-2.375-7.366-4.007-11.132-2.959-.148,0-.093.241,0,.269a52.581,52.581,0,0,1,10.9,3.108.241.241,0,0,0,.232-.417Z" transform="translate(-57.5 -103.364)" fill="#263238"/>
        <path id="Path_8494" data-name="Path 8494" d="M169.9,222.16h0c-.148.7-2.5,11.6-4.935,20.965-1.772,6.837-3.6,12.857-4.638,13.479-1.187.7-6.957,3.256-8.9,4.054,0,0-12.987,64.806-19.833,84.9-6.317,18.553-32.468,68.1-32.468,68.1l-38-19.1s29.685-50.3,32.765-59.323c4.833-13.989,22.941-82.3,22.941-82.3s-.139-21.382,7.069-30.724Z" transform="translate(-55.256 -88.245)" fill="#263238"/>
        <path id="Path_8495" data-name="Path 8495" d="M98.939,419.315c-5.427-3.033-3.831-2.236-9.276-5.2C86.991,412.655,69.431,403.118,66.7,402.2c-.065,0-.111.074-.065.111,2.291,1.753,20.009,10.983,22.709,12.384,5.566,2.857,3.97,1.976,9.508,4.777a.093.093,0,0,0,.083-.158Z" transform="translate(-55.653 -101.271)" fill="#37474f"/>
        <path id="Path_8496" data-name="Path 8496" d="M131.672,247.812c1.039-.269,2.152-.353,3.21-.519.863-.139,1.716-.288,2.56-.473a11.058,11.058,0,0,0,4.508-1.9,10.705,10.705,0,0,0,2.931-4.545c.417-.983.853-1.967,1.289-2.95l.649-1.419a17,17,0,0,0,.807-1.716.069.069,0,1,1,.13.046,10.93,10.93,0,0,0-.362,1.224c-.148.482-.278.928-.427,1.438-.269.844-.519,1.7-.807,2.542a19.733,19.733,0,0,1-1.855,4.471c-1.568,2.5-4.369,3.5-7.171,3.859-.8.1-1.6.158-2.421.2a17.748,17.748,0,0,1-3.061,0,.139.139,0,0,1,.019-.26Z" transform="translate(-60.352 -89.119)" fill="#37474f"/>
        <path id="Path_8497" data-name="Path 8497" d="M170.427,257.678a76.176,76.176,0,0,0-11.9,5.566.139.139,0,0,0,.111.25c4.007-1.725,8.1-3.377,12-5.315a.272.272,0,1,0-.213-.5Z" transform="translate(-62.298 -90.813)" fill="#37474f"/>
        <path id="Path_8498" data-name="Path 8498" d="M172.023,228.071c0-.139-.26-.167-.25,0,0,4.759-.278,8.943-.677,13.4-.186,2.059-1.855,13.469-5.427,12.644-.6-.139-.928-.733-1-1.633a14.256,14.256,0,0,1,.482-3.507c.39-2.384.714-4.777.928-7.189a65.633,65.633,0,0,0-.148-13.5.121.121,0,0,0-.232,0,123.946,123.946,0,0,1-1.085,18.636c-.445,2.959-1.948,7.421,1.16,7.885s5.2-7.013,5.566-9.063a68.646,68.646,0,0,0,.686-17.672Z" transform="translate(-62.688 -88.664)" fill="#37474f"/>
        <path id="Path_8499" data-name="Path 8499" d="M165.821,256.44a17.291,17.291,0,0,0-.8,2.365,5.381,5.381,0,0,0-.343,1.939.139.139,0,0,0,.25.056,6.8,6.8,0,0,0,.835-1.855c.269-.733.557-1.456.807-2.2a.406.406,0,1,0-.751-.306Z" transform="translate(-62.748 -90.707)" fill="#37474f"/>
        <path id="Path_8500" data-name="Path 8500" d="M72.179,388.432c5.4-10.167,10.965-20.251,16.531-30.325,2.783-4.963,5.631-9.87,8.265-14.9a90.222,90.222,0,0,0,6-15.547q5.028-16.289,9.5-32.746t8.423-33.052c.659-2.783,1.382-5.566,1.911-8.349a25.538,25.538,0,0,0,0-8.525,27.059,27.059,0,0,1-.065-7.931A52.108,52.108,0,0,1,124.6,229.3c.417-1.336.872-2.662,1.336-3.98.046-.148.278-.083.232.065-1.642,5.362-3.312,10.77-2.959,16.447.167,2.727.928,5.4.844,8.145a39.018,39.018,0,0,1-1.382,8.052q-3.868,16.7-8.349,33.238t-9.332,33.006a127.957,127.957,0,0,1-5.408,15.77c-2.291,5.056-5.186,9.879-7.913,14.74-5.64,10.028-11.327,20.037-17.143,29.963L72.3,388.525C72.253,388.59,72.133,388.515,72.179,388.432Z" transform="translate(-56.054 -88.467)" fill="#37474f"/>
        <path id="Path_8501" data-name="Path 8501" d="M155.064,172.508c6.855,3.071,37.05,8.646,46.151,1.429,9.277-7.356,15.306-38.034,16-41.661s-22.922-9.276-23.729-5.983c-2.059,8.488-5.612,30.733-9.1,31.92-7.328,2.486-14.434,2.931-26.252,5.223C149.9,165.031,147.494,169.113,155.064,172.508Z" transform="translate(-61.721 -81.237)" fill="#de907f"/>
        <path id="Path_8502" data-name="Path 8502" d="M220.285,130.644c1.419-2.56,7.059-15,7.82-18.766s2.152-14.777-.677-15.649-3.5,2.282-3.5,2.282-.148-4.74-3.071-5.353-3.8,4.369-3.8,4.369-.51-4.861-3.469-5.269-3.006,4.759-3.006,4.759-.25-4.462-2.783-3.766c-3.108.826-1.716,9-2.866,13.1-.26.928-6.633,18.488-6.633,18.488Z" transform="translate(-65.18 -78.844)" fill="#de907f"/>
        <path id="Path_8503" data-name="Path 8503" d="M211.411,96.978c1.011,6.011.417,8.813-1.9,14.36a.093.093,0,0,0,.167.083c2.783-5.213,4.017-8.627,2.022-14.508C211.6,96.579,211.365,96.644,211.411,96.978Z" transform="translate(-65.99 -79.167)" fill="#263238"/>
        <path id="Path_8504" data-name="Path 8504" d="M218.256,97.444c.51,6.336-.111,9.388-2.106,15.371,0,.083.111.139.139.056,2.458-5.705,3.636-9.137,2.291-15.408C218.525,97.184,218.237,97.157,218.256,97.444Z" transform="translate(-66.471 -79.207)" fill="#263238"/>
        <path id="Path_8505" data-name="Path 8505" d="M225.561,99.339c.046,6.169-.492,9.546-3.173,15.1a.112.112,0,0,0,.195.111c3.293-5.4,3.989-9.6,3.163-15.195C225.738,99.005,225.552,98.949,225.561,99.339Z" transform="translate(-66.922 -79.339)" fill="#263238"/>
        <path id="Path_8506" data-name="Path 8506" d="M196.334,129.1s-2.644-7.171-3.108-10.575,2.477-16.7,5.39-16.271c3.766.612,3.59,8.646,2.987,12.56,0,0,8.711,1.4,9.824,7.2S196.334,129.1,196.334,129.1Z" transform="translate(-64.809 -79.568)" fill="#de907f"/>
        <path id="Path_8507" data-name="Path 8507" d="M200.1,102.8c3.033,3.033,1.911,8.126,1.6,11.976a.353.353,0,0,0,.436.39c3.609.826,8.46,3.052,9.926,6.679a.088.088,0,0,0,.167-.056c-1.039-4.1-5.622-6.67-9.638-7.328.371-3.943,1.271-9.1-2.468-11.688C200.1,102.751,200.081,102.779,200.1,102.8Z" transform="translate(-65.31 -79.606)" fill="#263238"/>
        <path id="Path_8508" data-name="Path 8508" d="M191.777,132.46s-5.232,24.026-7.3,25.111c-3.451,1.8-23.47,5.213-30.612,6.809s-12.69,9.332,5.566,12.161,34.842,7.236,43.6,3.275c5.445-2.468,22.5-27.356,22.5-27.356Z" transform="translate(-61.477 -81.755)" fill="#ef0f50"/>
        <path id="Path_8509" data-name="Path 8509" d="M194.563,141.619c13.358,7.263,26.271,15.983,28.637,17.421.121.074,0,.232-.148.158-2.217-1.354-18.3-10.436-28.664-17.412C194.266,141.711,194.433,141.544,194.563,141.619Z" transform="translate(-64.894 -82.416)" fill="#263238"/>
        <path id="Path_8510" data-name="Path 8510" d="M199.172,183.758c-9.277,1.7-23.933-1.957-39.768-4.416-11.132-1.735-13.377-5.3-11.818-8.173Z" transform="translate(-61.479 -84.555)" opacity="0.1"/>
        <path id="Path_8511" data-name="Path 8511" d="M121,233.473c.158.121,59.212-4,59.62-4.638.223-.353-.557-8.4-3.59-18.015-5.037-16.03-15.77-37.644-22.941-44.3-2.866-2.662-10.835-1.512-13.97,1.967C130.8,178.77,120.432,233.019,121,233.473Z" transform="translate(-59.586 -84.113)" fill="#ebebeb"/>
        <path id="Path_8512" data-name="Path 8512" d="M136.064,168.987s4.87,8.822,6.4,11.132c3.562,5.38,12.059,12.987,12.059,12.987a98.329,98.329,0,0,0,.464-17.384c-.195-2.171-2.829-8.7-2.829-8.7S168.253,184,176.787,218.152s20.529,133.08,20.529,133.08-20.946,16.9-42.82,16.846c-35.362-.1-72.106-23.8-72.106-23.8s12.171-20.1,13.043-22.727,18.961-72.7,19.165-73.284S127.27,179.33,136.064,168.987Z" transform="translate(-56.794 -84.255)" fill="#ef0f50"/>
        <path id="Path_8513" data-name="Path 8513" d="M164.433,346.9c-.881,4.388-6.243,21.206-9.6,31.624a105.7,105.7,0,0,1-20.1-3.006c6.391-7.931,17.857-25.677,19.592-30.158,2.032-5.251,3.868-30.325,6.8-32.746S165.732,340.42,164.433,346.9Z" transform="translate(-60.581 -94.779)" opacity="0.1"/>
        <path id="Path_8514" data-name="Path 8514" d="M158.162,293.988a.163.163,0,0,0-.325,0c-.176,1.475-.223,2.968-.371,4.443s-.417,2.959-.622,4.443c-.4,3.006-.853,6.011-1.28,9.007-.853,5.956-1.994,11.892-3.247,17.774-.705,3.321-1.6,6.633-2.6,9.879,0,.093.111.121.139,0a173.688,173.688,0,0,0,5.631-17.4,84.784,84.784,0,0,0,1.707-8.859,88.441,88.441,0,0,0,.928-8.98c.083-1.679.046-3.358.046-5.037S158.273,295.723,158.162,293.988Z" transform="translate(-61.665 -93.43)" opacity="0.1"/>
        <path id="Path_8515" data-name="Path 8515" d="M197.824,364.273c0,1.234-.121,2.458-.213,3.711l-1.178.714v-.288c-.083-1.855-.13-3.627-.186-5.445-.2-6.364-.427-12.718-1-19.063-.148-1.586-.195-3.173-.343-4.759a38.582,38.582,0,0,1-.288-4.852,31.184,31.184,0,0,0-.455-4.731c-.195-1.614-.436-3.219-.64-4.824a.074.074,0,0,1,.139,0c.408,1.772.733,3.553,1.076,5.334.167.928.315,1.781.492,2.672s.436,1.744.6,2.625a125.71,125.71,0,0,1,1.948,19.286C197.88,357.825,197.926,361.044,197.824,364.273Z" transform="translate(-64.834 -95.663)" opacity="0.1"/>
        <path id="Path_8516" data-name="Path 8516" d="M190.845,330.957c-.074-2.338-.148-4.694-.288-7.032s-.334-4.638-.584-6.911-.668-4.638-.872-7.022c-.232-2.644-.482-5.3-.677-7.95,0-.13-.213-.121-.2,0,.121,2.347.213,4.685.325,7.032s0,4.694.13,7.041c.176,4.638.631,9.276,1.206,13.915.334,2.653.826,5.278,1.058,7.941,0,.093.158.083.148,0C190.892,335.661,190.919,333.3,190.845,330.957Z" transform="translate(-64.451 -94.017)" opacity="0.1"/>
        <path id="Path_8517" data-name="Path 8517" d="M148.094,350.424c-1.54,2.783-3.154,5.566-4.787,8.349-1.456,2.458-2.885,4.935-4.573,7.245s-3.386,4.425-5.176,6.568c-1.262,1.5-2.532,3.006-3.859,4.443l-1.169-.334,1.169-1.419c3.265-3.933,6.262-8.071,9.36-12.134,1.586-2.078,3.219-4.109,4.7-6.271s2.876-4.314,4.23-6.494a.056.056,0,0,1,.1.046Z" transform="translate(-60.132 -97.519)" opacity="0.1"/>
        <path id="Path_8518" data-name="Path 8518" d="M140.515,306.478c-2.152,6.66-4.332,13.293-6.92,19.8-1.271,3.191-2.783,6.271-4.212,9.4s-2.783,6.262-4.434,9.276a95.825,95.825,0,0,1-6.169,9.861c0,.074.065.148.121.093a84.632,84.632,0,0,0,11.132-17.384,94.181,94.181,0,0,0,3.813-9.74c1.178-3.284,2.254-6.6,3.312-9.917,1.2-3.776,2.328-7.56,3.469-11.345a.065.065,0,0,0-.111-.037Z" transform="translate(-59.427 -94.344)" opacity="0.1"/>
        <path id="Path_8519" data-name="Path 8519" d="M180.51,230.627c-.733.742-1.558,1.391-2.319,2.1l-1.085,1.03c-.408.371-.844.649-1.271.993-1.549,1.252-3.145,2.44-4.712,3.711a40.621,40.621,0,0,1-10.13,5.965c-8.08,3.163-16.939,2.43-25.186.492-4.842-1.141-9.564-2.783-14.332-4.23-.065,0-.111.1,0,.13a123.82,123.82,0,0,0,12.681,4.833,52.515,52.515,0,0,0,13.071,2.69,33.9,33.9,0,0,0,12.987-1.67,39.889,39.889,0,0,0,10.622-5.714,35.945,35.945,0,0,0,5.186-4.638c.816-.881,1.6-1.8,2.4-2.681s1.521-1.855,2.319-2.783C180.789,230.683,180.622,230.516,180.51,230.627Z" transform="translate(-59.617 -88.855)" opacity="0.1"/>
        <path id="Path_8520" data-name="Path 8520" d="M127.392,174.382C110.425,165.95,91.214,153.733,90.2,143.77c-.928-8.961,5.019-24.2,11.364-40.817,1.262-3.293,26.364,7.857,24.675,11.234-3.34,6.651-12.672,21.095-12.82,25.408-.065,1.855,15.167,17.366,23.72,28.006C147.522,180.607,134.154,177.768,127.392,174.382Z" transform="translate(-57.352 -79.576)" fill="#de907f"/>
        <path id="Path_8521" data-name="Path 8521" d="M107.6,87.307c-3.043,4.8-6.957,19.3-6.4,22.477s21.243,7.922,23.8,5.826S136.549,96.565,135.918,90.8,110.751,82.335,107.6,87.307Z" transform="translate(-58.151 -78.3)" fill="#de907f"/>
        <path id="Path_8524" data-name="Path 8524" d="M125.113,101.662c.176.2.26,0,.3-.186a5.176,5.176,0,0,0,.083-.566V99.742a21.661,21.661,0,0,0-.139-2.338c-.083-.77-.195-1.549-.343-2.31a7.271,7.271,0,0,0-.3-1.113c-.13-.315-.306-.779-.714-.529a.482.482,0,0,1,.25-.213.547.547,0,0,1,.362.065,1.447,1.447,0,0,1,.492.455,4.4,4.4,0,0,1,.6,1.122,10.055,10.055,0,0,1,.566,2.43,8.933,8.933,0,0,1-.065,2.486,6.336,6.336,0,0,1-.315,1.215,2.781,2.781,0,0,1-.288.575.677.677,0,0,1-.26.25.167.167,0,0,1-.195,0,.657.657,0,0,1-.037-.176Z" transform="translate(-59.804 -78.917)" fill="#ef0f50"/>
        <path id="Path_8525" data-name="Path 8525" d="M124.625,101.761c.195.195.26,0,.288-.2a3.949,3.949,0,0,0,0-.584V99.795a21.756,21.756,0,0,0-.306-2.338c-.139-.77-.306-1.549-.5-2.31a8.676,8.676,0,0,0-.362-1.113,2.023,2.023,0,0,0-.269-.482.288.288,0,0,0-.455,0,.371.371,0,0,1,.241-.232.594.594,0,0,1,.362.065,2.013,2.013,0,0,1,.51.455,5.491,5.491,0,0,1,.649,1.095,10.974,10.974,0,0,1,.733,2.393,9.156,9.156,0,0,1,.121,2.514,6.383,6.383,0,0,1-.232,1.243,3.034,3.034,0,0,1-.241.6.816.816,0,0,1-.241.269A.255.255,0,0,1,124.625,101.761Z" transform="translate(-59.733 -78.922)" fill="#ef0f50"/>
        <path id="Path_8526" data-name="Path 8526" d="M124.248,101.844a.26.26,0,0,0,.121.083h0a1.478,1.478,0,0,0,0-.269,2.569,2.569,0,0,0-.13-.575l-.278-1.15c-.186-.761-.343-1.54-.51-2.31s-.278-1.549-.408-2.319c-.065-.39-.121-.779-.2-1.15a3.283,3.283,0,0,0-.158-.538c-.065-.167-.195-.26-.38-.093a.325.325,0,0,1,.25-.223.5.5,0,0,1,.334.167,2.431,2.431,0,0,1,.371.519,7.969,7.969,0,0,1,.482,1.132,17.625,17.625,0,0,1,.622,2.328,17.125,17.125,0,0,1,.325,2.384,10.607,10.607,0,0,1,0,1.215,1.969,1.969,0,0,1-.065.612,1.55,1.55,0,0,1-.1.315.158.158,0,0,1-.074.083.093.093,0,0,1-.121,0A.51.51,0,0,1,124.248,101.844Z" transform="translate(-59.681 -78.921)" fill="#ef0f50"/>
        <path id="Path_8527" data-name="Path 8527" d="M135.595,99.368c-2.69,1.336-2.727-2.607-2.727-2.607s-1.317,5.686-4.638,5.993-3.07-4.471-3.061-4.815c-.074.3-1.419,5.5-4.777,5.464s-2.551-4.8-2.486-5.111c-.158.269-2.291,3.711-4.842,3.089-4.379-1.039.844-9.963-.223-13.451,0,0-4.824-.77-5.009-.77,0,0,3.507-6.688,8.284-7.866a3.135,3.135,0,0,1,3.59,1.6s1.271-2.913,3.9-3.006c1.364,0,2.616,2.124,2.616,2.124a3.933,3.933,0,0,1,3.442-2.217c1.855.074,2.848,2.217,2.848,2.217s2.078-1.735,3.97-1.039C140.316,80.379,141.383,96.538,135.595,99.368Z" transform="translate(-58.634 -77.8)" fill="#de907f"/>
        <path id="Path_8528" data-name="Path 8528" d="M134.638,80.53h.083a28.108,28.108,0,0,1,.1,16.7c-.065.167-.362.148-.334,0a57.837,57.837,0,0,0,.148-16.7Z" transform="translate(-60.563 -77.998)" fill="#263238"/>
        <path id="Path_8529" data-name="Path 8529" d="M127.585,80.106c0-.065.093-.083.111,0a26.215,26.215,0,0,1-1.02,18.182c-.093.195-.371.278-.288,0C127.882,94.336,128.365,85.263,127.585,80.106Z" transform="translate(-59.976 -77.963)" fill="#263238"/>
        <path id="Path_8530" data-name="Path 8530" d="M118.339,98.889c2.393-5.64,2.783-11.475,2.217-17.523,0-.074.111-.074.13,0,1.058,2.885.983,6.772.668,9.787a16.113,16.113,0,0,1-2.783,7.829C118.479,99.065,118.293,99.01,118.339,98.889Z" transform="translate(-59.394 -78.054)" fill="#263238"/>
        <path id="Path_8531" data-name="Path 8531" d="M133.119,97.545a18.3,18.3,0,0,1-1.345,3.089,6.178,6.178,0,0,1-2.134,2.4,2.013,2.013,0,0,1-1.438.232,2.987,2.987,0,0,1-1.327-.686,3.6,3.6,0,0,1-.928-2.783l.1-2.468-.928,2.282a9.926,9.926,0,0,1-1.7,2.783,3.618,3.618,0,0,1-2.6,1.4,2.059,2.059,0,0,1-2.115-1.5,6.15,6.15,0,0,1,0-3.126l.631-2.857-1.531,2.477a9.277,9.277,0,0,1-1.512,1.855,3.905,3.905,0,0,1-1.976,1.095,1.855,1.855,0,0,1-1.855-.724,4.193,4.193,0,0,1-.464-2.254,33.729,33.729,0,0,1,.724-5.019c.167-.835.325-1.679.445-2.532a6.151,6.151,0,0,0,0-2.57,6.818,6.818,0,0,1-.195,2.523c-.186.835-.408,1.66-.631,2.486a27.83,27.83,0,0,0-1.011,5.084,4.9,4.9,0,0,0,.473,2.718,2.635,2.635,0,0,0,2.644,1.178,4.777,4.777,0,0,0,2.477-1.3,10.65,10.65,0,0,0,1.725-2.078l-.928-.371a7.115,7.115,0,0,0,0,3.711,3.052,3.052,0,0,0,1.178,1.642,3.479,3.479,0,0,0,1.93.538,4.564,4.564,0,0,0,3.293-1.781,10.761,10.761,0,0,0,1.855-3.1l-.844-.186a4.3,4.3,0,0,0,1.382,3.358,3.711,3.711,0,0,0,1.679.761,2.644,2.644,0,0,0,1.855-.38,6.308,6.308,0,0,0,2.134-2.783,15.271,15.271,0,0,0,.928-3.117Z" transform="translate(-58.886 -78.584)" fill="#263238"/>
        <path id="Path_8532" data-name="Path 8532" d="M128.615,113.5s19.88-13.627,10.742-18.738c-2.709-1.54-15.687-4.638-16.354-2-.853,3.358,4.323,5.64,7.8,6.558,0,0-7.421,3.711-6.391,9.61A5.983,5.983,0,0,0,128.615,113.5Z" transform="translate(-59.725 -78.808)" fill="#de907f"/>
        <path id="Path_8533" data-name="Path 8533" d="M140.043,95.148a12.366,12.366,0,0,0-3.247-1.716,27.616,27.616,0,0,0-3.525-1.085,42.486,42.486,0,0,0-7.3-1.178,7.05,7.05,0,0,0-1.948.139,2.782,2.782,0,0,0-1.02.473,2.226,2.226,0,0,0-.417.455,2.125,2.125,0,0,0-.241.566,3.108,3.108,0,0,0,.26,2.134,6,6,0,0,0,1.271,1.586,11.2,11.2,0,0,0,3.256,1.957,25.979,25.979,0,0,0,3.544,1.169l-.074-.8a14.62,14.62,0,0,0-2.347,1.577,12.9,12.9,0,0,0-1.985,1.976,9.017,9.017,0,0,0-1.419,2.412,7.022,7.022,0,0,0-.538,2.709,7.8,7.8,0,0,1,.807-2.588,9.824,9.824,0,0,1,1.558-2.18,13.551,13.551,0,0,1,2-1.781,14.015,14.015,0,0,1,2.291-1.354l.993-.464-1.067-.334A27.584,27.584,0,0,1,127.52,97.6a11.132,11.132,0,0,1-2.959-1.855,3.043,3.043,0,0,1-1.206-2.709c.148-.816,1.484-.928,2.625-.928a32.52,32.52,0,0,1,3.59.306c1.206.139,2.4.306,3.59.529a23.451,23.451,0,0,1,6.883,2.208Z" transform="translate(-59.678 -78.766)" fill="#263238"/>
        <path id="Path_8534" data-name="Path 8534" d="M124.068,118.53s-10.631,20.3-9.768,22.477c1.429,3.618,19.314,22.607,23.655,28.47s7.05,13.219-9.5,9.777c-11.837-2.477-38.915-18.367-43.2-28.637-2.959-7.1-2.143-35.937-2.143-35.937Z" transform="translate(-56.839 -80.468)" fill="#ef0f50"/>
        <path id="Path_8535" data-name="Path 8535" d="M86.038,122.63c15.195.529,30.612,2.56,33.4,2.783.13,0,.056.223-.074.213-2.588-.223-21.03-1.15-33.4-2.783C85.815,122.843,85.889,122.63,86.038,122.63Z" transform="translate(-57.047 -81.044)" fill="#263238"/>
        <path id="Path_8536" data-name="Path 8536" d="M147.851,162.77c-6.494,0-16.048,10.733-15.64,13.59.6,4.082,6.735,34.017,7.579,42.013s-15.77,46.382-15.77,46.382l10.918-3.182L139.1,271.3s14.61-33.572,15.77-48.015-14.842-51.1-14.119-53.3,5.13-4.861,7.338-4.944,6.494,3.479,9.165,7.245,15.408,30.547,17.625,40.325-2.644,49.564-2.644,49.564l8.655-6.447,8.794,7.783s2.1-38.238-1.02-54.24c-1.976-10.2-13.729-28.479-24.7-38.8C157.684,164.56,151.738,162.761,147.851,162.77Z" transform="translate(-59.806 -83.948)" fill="#261b5c"/>
        <path id="Path_8537" data-name="Path 8537" d="M154.4,175.335c-2.375.575-8.228-2.922-10.909-6.317-.176-.232-.241-3.006-.482-6.364-.148-2.041-.362-4.3-.714-6.354l13.414.928a33.393,33.393,0,0,0,.083,8.1,5.081,5.081,0,0,0,.232.826v.139C156.594,167.868,158.106,174.436,154.4,175.335Z" transform="translate(-61.128 -83.48)" fill="#de907f"/>
        <path id="Path_8538" data-name="Path 8538" d="M156.092,166.178a1.209,1.209,0,0,1,0,.139,9.275,9.275,0,0,1-1.317.3c-7.347,1.067-10.649-7.551-11.484-10.2l12.44.881a33.394,33.394,0,0,0,.083,8.1A5.363,5.363,0,0,0,156.092,166.178Z" transform="translate(-61.2 -83.488)" fill="#263238"/>
        <path id="Path_8539" data-name="Path 8539" d="M152.16,128.22s4.889.8,6.772,5.139,1.967,9.332,1.623,9.657S152.16,128.22,152.16,128.22Z" transform="translate(-61.842 -81.448)" fill="#263238"/>
        <path id="Path_8540" data-name="Path 8540" d="M135.88,138.867c-.195,4.833,5.566,17.162,9.518,19.2,5.714,2.978,13.377,1.391,15.482-5.093,2.013-6.289-5.761-22.162-10.046-23.9C144.609,126.585,136.167,131.743,135.88,138.867Z" transform="translate(-60.663 -81.464)" fill="#de907f"/>
        <path id="Path_8541" data-name="Path 8541" d="M147.46,142.322c.325-.25.584-.538.928-.826a1.994,1.994,0,0,0,.751-1.011.64.64,0,0,0-.39-.659,1.549,1.549,0,0,0-1.5.473,2.254,2.254,0,0,0-.816,1.419.668.668,0,0,0,1.03.6Z" transform="translate(-61.427 -82.285)" fill="#263238"/>
        <path id="Path_8542" data-name="Path 8542" d="M156.255,138.542a10.352,10.352,0,0,1-1.2.186,1.957,1.957,0,0,1-1.262-.046.612.612,0,0,1-.269-.714,1.549,1.549,0,0,1,1.3-.881,2.291,2.291,0,0,1,1.623.25.668.668,0,0,1-.195,1.206Z" transform="translate(-61.939 -82.086)" fill="#263238"/>
        <path id="Path_8543" data-name="Path 8543" d="M152.7,152.757a1.364,1.364,0,0,0,.928.186,2.421,2.421,0,0,0,.807-.6h.056a1.234,1.234,0,0,1-.872.928.928.928,0,0,1-.983-.455.056.056,0,0,1,.065-.056Z" transform="translate(-61.876 -83.193)" fill="#263238"/>
        <path id="Path_8544" data-name="Path 8544" d="M152.482,148.824a3.117,3.117,0,0,0,2.458.455,3.756,3.756,0,0,0,1.057-.4l.186-.1.167-.111a.232.232,0,0,0,.093-.26h0a.335.335,0,0,0,0-.083h0v-.074c-.26-.659-.751-1.614-.751-1.614.288,0,1.725,0,1.568-.288a47.142,47.142,0,0,0-4.842-8.2.088.088,0,1,0-.148.093c1.215,2.672,2.894,5.121,4.156,7.783a5.64,5.64,0,0,0-1.531.176c-.074.065.974,1.855,1.067,2.143a4.286,4.286,0,0,1-3.358.353C152.445,148.694,152.4,148.778,152.482,148.824Z" transform="translate(-61.849 -82.163)" fill="#263238"/>
        <path id="Path_8545" data-name="Path 8545" d="M155.483,149.55a3.655,3.655,0,0,1-.928,1.633,1.651,1.651,0,0,1-.928.464c-.751.111-1.03-.5-1.132-1.085a3.635,3.635,0,0,1-.046-.928A4.778,4.778,0,0,0,155.483,149.55Z" transform="translate(-61.862 -82.991)" fill="#263238"/>
        <path id="Path_8546" data-name="Path 8546" d="M154.579,151.252a1.651,1.651,0,0,1-.928.464c-.751.111-1.03-.5-1.132-1.085a1.725,1.725,0,0,1,2.059.622Z" transform="translate(-61.868 -83.06)" fill="#ff9bbc"/>
        <path id="Path_8547" data-name="Path 8547" d="M148.618,144.627a1.448,1.448,0,0,1,.065-.733,1.02,1.02,0,0,1,.566-.547.928.928,0,0,1,.8.111,1.642,1.642,0,0,1,.473.547,3.017,3.017,0,0,1,.167.4,1.8,1.8,0,0,1,.111.881,2.663,2.663,0,0,0-.25-.6,2.97,2.97,0,0,0-.315-.492c-.241-.325-.557-.547-.835-.427a.829.829,0,0,0-.436.835,6.741,6.741,0,0,0,.186,1.234A2.894,2.894,0,0,1,148.618,144.627Z" transform="translate(-61.584 -82.539)" fill="#263238"/>
        <path id="Path_8548" data-name="Path 8548" d="M157.247,140.648a1.271,1.271,0,0,0-.566-.455.974.974,0,0,0-.789,0,.928.928,0,0,0-.473.649,1.855,1.855,0,0,0,.065.724c0,.139.111.269.167.4a1.939,1.939,0,0,0,.566.686,2.784,2.784,0,0,1-.26-.594,3.248,3.248,0,0,1-.139-.575.853.853,0,0,1,.278-.928.77.77,0,0,1,.928.26,7,7,0,0,1,.761.993A2.783,2.783,0,0,0,157.247,140.648Z" transform="translate(-62.077 -82.308)" fill="#263238"/>
        <path id="Path_8549" data-name="Path 8549" d="M139.849,149.337c1.6-.232,1.206-5.213.928-7.05-.278-1.614-1.967-6.354-2.05-6.7s8.006,1.095,11.048-1.614,3.887-7,3.228-8.507-6.865-3.163-10.742-1.521-6.716,8.878-6.716,8.878a19.731,19.731,0,0,0,.612-3.052,4.592,4.592,0,0,0-1.744,3.961s-.557-2.421-.761-2.375-1.215,2.783-.111,4.045c0,0-1.289,2.959-.5,5.148S137.966,149.615,139.849,149.337Z" transform="translate(-60.44 -81.09)" fill="#263238"/>
        <path id="Path_8550" data-name="Path 8550" d="M152.2,132.72a12.9,12.9,0,0,1-2.783,2.783,8.785,8.785,0,0,1-4.063,1.187,13.275,13.275,0,0,1-4.276-.39c-1.225-.306-2.43-.807-3.711-1-.306-.046-.417.417-.176.566a14.044,14.044,0,0,0,8.646,1.66,8.061,8.061,0,0,0,6.373-4.8Z" transform="translate(-60.749 -81.774)" fill="#263238"/>
        <path id="Path_8551" data-name="Path 8551" d="M141.378,150.09s-4.1-3.33-5.686-1.753,2.3,6.985,4.759,7.18a2.338,2.338,0,0,0,2.672-2.069Z" transform="translate(-60.623 -82.873)" fill="#de907f"/>
        <path id="Path_8552" data-name="Path 8552" d="M137,150v.065a5.911,5.911,0,0,1,3.961,2.727,1.3,1.3,0,0,0-1.967.186s0,.093.074.074a1.438,1.438,0,0,1,1.66,0,7.587,7.587,0,0,1,1.085,1.03.15.15,0,0,0,.241-.176h0C141.481,151.935,139.152,149.6,137,150Z" transform="translate(-60.745 -83.02)" fill="#263238"/>
        <path id="Path_8553" data-name="Path 8553" d="M155.984,166.546l-2.866,8.024-10.2-9.62-2.653,3.321s10.2,15.52,10.251,14.8l3-6.939,4.889,4.564-.844-11.892Z" transform="translate(-60.981 -84.105)" fill="#ebebeb"/>
        <path id="Path_8554" data-name="Path 8554" d="M158.337,175.1c-.2-1.967-.353-3.943-.649-5.891a.07.07,0,0,0-.139,0c-.315,1.911.5,9.4.566,11.2h0c-.2-.2-4.527-4.007-4.564-3.943-.659,1.113-2.866,6.169-3.006,6.623-1.623-2.468-7.8-11.419-9.694-13.738a.067.067,0,1,0-.111.074c1.447,2.616,9.629,14.675,9.75,14.638a76.115,76.115,0,0,0,3.126-7.338c.742.835,5.111,5.148,5.121,4.861A62.49,62.49,0,0,0,158.337,175.1Z" transform="translate(-61.015 -84.409)" fill="#263238"/>
      </g>
      <g id="freepik--Hat--inject-47" transform="translate(208.683 41.122)">
        <path id="Path_8555" data-name="Path 8555" d="M161.669,60.653a5.056,5.056,0,0,1-3.525-1.6,5.9,5.9,0,0,1-1.855-4.805l.686.121a5.2,5.2,0,0,0,1.661,4.221,4.193,4.193,0,0,0,3.59,1.354c1.391-.241,2.653-1.54,3.989-2.9,1.6-1.642,3.265-3.349,5.52-3.711,4.341-.779,10.065,5.056,10.306,5.306l-.5.482c-.056-.056-5.705-5.835-9.685-5.1-2.032.362-3.609,1.976-5.139,3.544s-2.783,2.783-4.369,3.108a4.164,4.164,0,0,1-.677-.009Z" transform="translate(-154.817 -45.829)" fill="#263238"/>
        <path id="Path_8556" data-name="Path 8556" d="M156.977,54.463l-.3-.631a4.452,4.452,0,0,0,1.577-1.391,16.7,16.7,0,0,0,1.327-3.711l.677.167a17.18,17.18,0,0,1-1.429,3.9,4.982,4.982,0,0,1-1.855,1.67Z" transform="translate(-154.846 -45.502)" fill="#ef0f50"/>
        <path id="Path_8557" data-name="Path 8557" d="M156.027,54.082a11.068,11.068,0,0,1-1.206-2.134c-.362-.928.223-3.915.288-4.249l.686.139a12.385,12.385,0,0,0-.325,3.868,11.186,11.186,0,0,0,1.122,1.976Z" transform="translate(-154.704 -45.427)" fill="#ef0f50"/>
        <path id="Path_8558" data-name="Path 8558" d="M156.954,54.175l-.594-.371a17.226,17.226,0,0,0,1.5-2.783l.928-3.581.677.167s-.705,2.783-.928,3.59A17.718,17.718,0,0,1,156.954,54.175Z" transform="translate(-154.823 -45.408)" fill="#ef0f50"/>
        <path id="Path_8559" data-name="Path 8559" d="M156.134,53.958a22.813,22.813,0,0,1,0-3.859c.186-.686.445-2.783.445-2.839l.7.083c0,.083-.269,2.2-.464,2.931a21.037,21.037,0,0,0,0,3.627Z" transform="translate(-154.801 -45.395)" fill="#ef0f50"/>
        <path id="Path_8560" data-name="Path 8560" d="M198.711,61.623,221.819,47.3l-28.182-2.05L172.19,62.578Z" transform="translate(-155.969 -45.25)" fill="#ef0f50"/>
        <path id="Path_8561" data-name="Path 8561" d="M198.711,61.623,221.819,47.3l-28.182-2.05L172.19,62.578Z" transform="translate(-155.969 -45.25)" opacity="0.1"/>
        <path id="Path_8562" data-name="Path 8562" d="M213.235,60.362l-1.475-7.829s-8.776-1.15-14.731.7-12.319,7.05-12.319,7.05l3.052,8s8.126-4.351,12.987-5.742a90.493,90.493,0,0,1,12.486-2.171Z" transform="translate(-156.875 -45.751)" fill="#ef0f50"/>
      </g>
    </g>
  </g>
</svg>
