<svg id="Component" xmlns="http://www.w3.org/2000/svg" width="22.226" height="22.226" viewBox="0 0 22.226 22.226">
  <path id="Path_3" data-name="Path 3" d="M11.113,1.976a34.075,34.075,0,0,1,4.445.123,5.727,5.727,0,0,1,2.1.37,4.336,4.336,0,0,1,2.1,2.1,5.727,5.727,0,0,1,.37,2.1c0,1.111.123,1.482.123,4.445a34.075,34.075,0,0,1-.123,4.445,5.727,5.727,0,0,1-.37,2.1,4.336,4.336,0,0,1-2.1,2.1,5.727,5.727,0,0,1-2.1.37c-1.111,0-1.482.123-4.445.123a34.075,34.075,0,0,1-4.445-.123,5.727,5.727,0,0,1-2.1-.37,4.336,4.336,0,0,1-2.1-2.1,5.727,5.727,0,0,1-.37-2.1c0-1.111-.123-1.482-.123-4.445A34.075,34.075,0,0,1,2.1,6.668a5.727,5.727,0,0,1,.37-2.1,4.435,4.435,0,0,1,.864-1.235A2.088,2.088,0,0,1,4.569,2.47a5.727,5.727,0,0,1,2.1-.37,34.075,34.075,0,0,1,4.445-.123m0-1.976A36.484,36.484,0,0,0,6.544.123,7.623,7.623,0,0,0,3.828.617,4.834,4.834,0,0,0,1.852,1.852,4.834,4.834,0,0,0,.617,3.828,5.626,5.626,0,0,0,.123,6.544,36.484,36.484,0,0,0,0,11.113a36.484,36.484,0,0,0,.123,4.569A7.623,7.623,0,0,0,.617,18.4a4.834,4.834,0,0,0,1.235,1.976,4.834,4.834,0,0,0,1.976,1.235,7.623,7.623,0,0,0,2.717.494,36.484,36.484,0,0,0,4.569.123,36.484,36.484,0,0,0,4.569-.123,7.623,7.623,0,0,0,2.717-.494,5.18,5.18,0,0,0,3.21-3.21,7.623,7.623,0,0,0,.494-2.717c0-1.235.123-1.605.123-4.569A36.484,36.484,0,0,0,22.1,6.544a7.623,7.623,0,0,0-.494-2.717,4.834,4.834,0,0,0-1.235-1.976A4.834,4.834,0,0,0,18.4.617,7.623,7.623,0,0,0,15.682.123,36.484,36.484,0,0,0,11.113,0m0,5.433a5.589,5.589,0,0,0-5.68,5.68,5.68,5.68,0,1,0,5.68-5.68m0,9.384a3.638,3.638,0,0,1-3.7-3.7,3.638,3.638,0,0,1,3.7-3.7,3.638,3.638,0,0,1,3.7,3.7,3.638,3.638,0,0,1-3.7,3.7M17.04,3.828A1.358,1.358,0,1,0,18.4,5.186,1.37,1.37,0,0,0,17.04,3.828" fill="#f85d82" fill-rule="evenodd"/>
</svg>
