<svg id="Component" xmlns="http://www.w3.org/2000/svg" width="22.226" height="22.44" viewBox="0 0 22.226 22.44">
  <rect id="Rectangle_393" data-name="Rectangle 393" width="21.318" height="22.44" transform="translate(0.481)" fill="none"/>
  <path id="Path_2" data-name="Path 2" d="M45.038,20.028A12.85,12.85,0,0,0,58,7.063V6.445A10.037,10.037,0,0,0,60.226,4.1a10.25,10.25,0,0,1-2.593.741,4.8,4.8,0,0,0,1.976-2.47,11.326,11.326,0,0,1-2.84,1.111A4.41,4.41,0,0,0,53.435,2a4.639,4.639,0,0,0-4.569,4.569,2.407,2.407,0,0,0,.123.988,12.766,12.766,0,0,1-9.384-4.816,4.729,4.729,0,0,0-.617,2.346,4.906,4.906,0,0,0,1.976,3.828,4.163,4.163,0,0,1-2.1-.617h0a4.513,4.513,0,0,0,3.7,4.445,3.807,3.807,0,0,1-1.235.123,2.1,2.1,0,0,1-.864-.123,4.678,4.678,0,0,0,4.322,3.21,9.323,9.323,0,0,1-5.68,1.976A3.419,3.419,0,0,1,38,17.805a11.655,11.655,0,0,0,7.038,2.223" transform="translate(-38 0.777)" fill="#f85d82" fill-rule="evenodd"/>
</svg>
